<?xml version="1.0" encoding="UTF-8" standalone="no"?>
<!-- Created with Inkscape (http://www.inkscape.org/) -->

<svg
   xmlns:dc="http://purl.org/dc/elements/1.1/"
   xmlns:cc="http://creativecommons.org/ns#"
   xmlns:rdf="http://www.w3.org/1999/02/22-rdf-syntax-ns#"
   xmlns:svg="http://www.w3.org/2000/svg"
   xmlns="http://www.w3.org/2000/svg"
   xmlns:sodipodi="http://sodipodi.sourceforge.net/DTD/sodipodi-0.dtd"
   xmlns:inkscape="http://www.inkscape.org/namespaces/inkscape"
   width="133.8"
   height="133.8"
   id="svg2"
   version="1.1"
   inkscape:version="0.48.4 r9939"
   sodipodi:docname="DIT4C_logo.svg"
   inkscape:export-filename="/home/uqtdettr/Pictures/DIT4C_logo.png"
   inkscape:export-xdpi="336.32288"
   inkscape:export-ydpi="336.32288">
  <defs
     id="defs4" />
  <sodipodi:namedview
     id="base"
     pagecolor="#ffffff"
     bordercolor="#666666"
     borderopacity="1.0"
     inkscape:pageopacity="0.0"
     inkscape:pageshadow="2"
     inkscape:zoom="2.8"
     inkscape:cx="92.489446"
     inkscape:cy="57.042525"
     inkscape:document-units="px"
     inkscape:current-layer="layer1"
     showgrid="false"
     inkscape:window-width="867"
     inkscape:window-height="627"
     inkscape:window-x="216"
     inkscape:window-y="133"
     inkscape:window-maximized="0"
     fit-margin-top="15"
     fit-margin-left="2.25"
     fit-margin-right="2.25"
     fit-margin-bottom="15" />
  <metadata
     id="metadata7">
    <rdf:RDF>
      <cc:Work
         rdf:about="">
        <dc:format>image/svg+xml</dc:format>
        <dc:type
           rdf:resource="http://purl.org/dc/dcmitype/StillImage" />
        <dc:title></dc:title>
      </cc:Work>
    </rdf:RDF>
  </metadata>
  <g
     inkscape:label="Layer 1"
     inkscape:groupmode="layer"
     id="layer1"
     transform="translate(0.1071386,11.803544)">
    <g
       id="g3047"
       transform="matrix(1.2928571,0,0,1.2421092,2.1428614,-23.99483)">
      <g
         id="Captions" />
      <g
         id="Your_Icon">
        <path
           id="path3039"
           d="m 88.361,53.688 c -0.021,0 -0.043,0.004 -0.067,0.004 0.014,-0.221 0.067,-0.432 0.067,-0.658 0,-7.117 -5.769,-12.884 -12.885,-12.884 -3.419,0 -6.508,1.354 -8.814,3.528 0.003,-0.121 0.019,-0.24 0.019,-0.361 0,-11.801 -9.569,-21.372 -21.375,-21.372 -11.804,0 -21.375,9.571 -21.375,21.372 0,0.505 0.04,1.001 0.075,1.497 -2.169,-1.017 -4.581,-1.6 -7.133,-1.6 C 7.554,43.213 0,51.292 0,60.61 0,69.928 7.554,78 16.873,78 H 88.361 C 94.788,78 100,72.271 100,65.845 100,59.417 94.788,53.688 88.361,53.688 z"
           inkscape:connector-curvature="0" />
      </g>
    </g>
    <g
       style="font-size:40px;font-style:normal;font-variant:normal;font-weight:normal;font-stretch:normal;text-align:start;line-height:125%;letter-spacing:0px;word-spacing:0px;writing-mode:lr-tb;text-anchor:start;fill:#000000;fill-opacity:1;stroke:none;font-family:Sans;-inkscape-font-specification:Sans"
       id="text3052"
       transform="translate(1.4285714,0)">
      <path
         d="m 30.934287,77.356462 c 3.62665,2.6e-5 6.399981,1.040024 8.32,3.12 1.946643,2.08002 2.919976,5.066684 2.92,8.96 -2.4e-5,4.453342 -1.02669,7.880006 -3.08,10.28 -2.053352,2.373338 -5.000016,3.559998 -8.84,3.559998 -2.00001,0 -4.666674,-0.0667 -8,-0.2 l 0.12,-7.759998 -0.12,-17.8 8.68,-0.16 m -0.4,24.159998 c 3.066651,0 5.413315,-1 7.04,-2.999998 1.653312,-1.999994 2.479978,-4.906657 2.48,-8.72 -2.2e-5,-3.519983 -0.786688,-6.173314 -2.36,-7.96 -1.573351,-1.81331 -3.866682,-2.719976 -6.88,-2.72 -1.546678,2.4e-5 -3.693342,0.06669 -6.44,0.2 l -0.12,15.88 0.08,6.079998 c 2.453325,0.16 4.519989,0.24 6.2,0.24"
         style="font-weight:300;font-family:Alegreya Sans;-inkscape-font-specification:Alegreya Sans Light"
         id="path3057"
         inkscape:connector-curvature="0" />
      <path
         d="m 50.037412,103.07646 -2.08,0 0.12,-7.759998 -0.12,-17.8 2.12,0 -0.12,17.68 0.08,7.879998"
         style="font-weight:300;font-family:Alegreya Sans;-inkscape-font-specification:Alegreya Sans Light"
         id="path3059"
         inkscape:connector-curvature="0" />
      <path
         d="m 72.311787,79.356462 -4.28,-0.12 -3.12,0 -0.12,15.96 0.08,7.879998 -2.08,0 0.12,-7.759998 -0.12,-16.08 -3.12,0 -4.36,0.12 -0.16,-0.24 0.2,-1.6 16.96,0 0.2,0.24 -0.2,1.6"
         style="font-weight:300;font-family:Alegreya Sans;-inkscape-font-specification:Alegreya Sans Light"
         id="path3061"
         inkscape:connector-curvature="0" />
      <path
         d="m 90.688662,99.636462 -3.28,-0.04 -0.68,0 0.08,7.039998 -0.16,0.2 -1.56,0.16 -0.16,-0.2 0.08,-7.199998 -8.04,0 -2.16,0.04 -0.2,-0.24 0,-1.4 10.24,-14.72 1.92,0 -0.04,14.6 3.96,0 0.2,0.24 -0.2,1.52 m -5.68,-13.56 -0.24,0 -8.2,11.8 8.44,0 0,-11.8"
         style="font-weight:300;font-family:Alegreya Sans;-inkscape-font-specification:Alegreya Sans Light"
         id="path3063"
         inkscape:connector-curvature="0" />
      <path
         d="m 104.99679,77.316462 c 2.66665,2.6e-5 4.99998,0.706692 7,2.12 l -0.44,1.88 -0.32,0.04 c -1.86669,-1.49331 -3.97335,-2.239976 -6.32,-2.24 -2.85335,2.4e-5 -5.040011,0.960023 -6.560003,2.88 -1.493338,1.920019 -2.240004,4.69335 -2.24,8.32 -4e-6,3.626676 0.733329,6.400006 2.2,8.32 1.466659,1.893338 3.573323,2.839998 6.320003,2.839998 2.53332,0 4.86665,-0.84 7,-2.519998 l 0.32,0.12 -0.16,1.959998 c -2.29335,1.52 -4.72002,2.28 -7.28,2.28 -3.36001,0 -5.960009,-1.10666 -7.800003,-3.319998 -1.813336,-2.239995 -2.720002,-5.426658 -2.72,-9.56 -2e-6,-4.18665 0.946664,-7.413313 2.84,-9.68 1.919993,-2.293309 4.639993,-3.439974 8.160003,-3.44"
         style="font-weight:300;font-family:Alegreya Sans;-inkscape-font-specification:Alegreya Sans Light"
         id="path3065"
         inkscape:connector-curvature="0" />
    </g>
  </g>
</svg>
