<?xml version="1.0" encoding="UTF-8" standalone="no"?>
<!-- Created with Inkscape (http://www.inkscape.org/) -->

<svg
   xmlns:dc="http://purl.org/dc/elements/1.1/"
   xmlns:cc="http://creativecommons.org/ns#"
   xmlns:rdf="http://www.w3.org/1999/02/22-rdf-syntax-ns#"
   xmlns:svg="http://www.w3.org/2000/svg"
   xmlns="http://www.w3.org/2000/svg"
   xmlns:sodipodi="http://sodipodi.sourceforge.net/DTD/sodipodi-0.dtd"
   xmlns:inkscape="http://www.inkscape.org/namespaces/inkscape"
   width="133.28571"
   height="93.626434"
   id="svg2"
   version="1.1"
   inkscape:version="0.91 r13725"
   sodipodi:docname="DIT4C_logo_base.svg"
   inkscape:export-filename="/home/uqtdettr/Pictures/DIT4C_logo.png"
   inkscape:export-xdpi="336.32288"
   inkscape:export-ydpi="336.32288">
  <defs
     id="defs4" />
  <sodipodi:namedview
     id="base"
     pagecolor="#ffffff"
     bordercolor="#666666"
     borderopacity="1.0"
     inkscape:pageopacity="0.0"
     inkscape:pageshadow="2"
     inkscape:zoom="3.959798"
     inkscape:cx="49.470936"
     inkscape:cy="52.321722"
     inkscape:document-units="px"
     inkscape:current-layer="layer1"
     showgrid="false"
     inkscape:window-width="1388"
     inkscape:window-height="900"
     inkscape:window-x="234"
     inkscape:window-y="851"
     inkscape:window-maximized="0"
     fit-margin-top="12"
     fit-margin-left="2"
     fit-margin-right="2"
     fit-margin-bottom="12"
     showguides="true">
    <inkscape:grid
       type="xygrid"
       id="grid3479"
       originx="8.6e-06"
       originy="10.000021" />
  </sodipodi:namedview>
  <metadata
     id="metadata7">
    <rdf:RDF>
      <cc:Work
         rdf:about="">
        <dc:format>image/svg+xml</dc:format>
        <dc:type
           rdf:resource="http://purl.org/dc/dcmitype/StillImage" />
        <dc:title></dc:title>
      </cc:Work>
    </rdf:RDF>
  </metadata>
  <g
     inkscape:label="Layer 1"
     inkscape:groupmode="layer"
     id="layer1"
     transform="translate(-0.1428524,8.7367116)">
    <g
       id="Captions"
       transform="matrix(1.2928571,0,0,1.2421092,2.1428614,-23.99483)" />
    <path
       id="path3039"
       d="m 116.38101,42.691529 c -0.0272,0 -0.0556,0.005 -0.0866,0.005 0.0181,-0.274506 0.0866,-0.536591 0.0866,-0.817308 0,-8.840091 -7.45849,-16.003335 -16.658466,-16.003335 -4.420279,0 -8.413914,1.681816 -11.395243,4.382162 0.0039,-0.150296 0.02456,-0.298107 0.02456,-0.448402 0,-14.65813 -12.37135,-26.5463576 -27.634821,-26.5463576 -15.260885,0 -27.63482,11.8882276 -27.63482,26.5463576 0,0.627265 0.05171,1.243352 0.09696,1.859438 -2.804207,-1.263225 -5.922578,-1.987375 -9.22195,-1.987375 -12.048135,-0.0012 -21.8143776,10.033758 -21.8143776,21.607732 0,11.573973 9.7662426,21.600279 21.8143776,21.600279 l 92.42377,0 c 8.30919,0 15.04756,-7.116044 15.04756,-15.097838 0,-7.984278 -6.73837,-15.100321 -15.04756,-15.100321 z"
       inkscape:connector-curvature="0" />
    <path
       id="path3065"
       style="font-style:normal;font-variant:normal;font-weight:300;font-stretch:normal;font-size:medium;line-height:125%;font-family:'Alegreya Sans';-inkscape-font-specification:'Alegreya Sans Light';text-align:start;letter-spacing:0px;word-spacing:0px;writing-mode:lr-tb;text-anchor:start;fill:#ffffff;fill-opacity:1;stroke:none"
       d="m 102.05737,37.209693 c 2.66665,2.6e-5 4.99998,0.706692 7,2.12 l -0.44,1.88 -0.32,0.04 c -1.86669,-1.49331 -3.97335,-2.239976 -6.32,-2.24 -2.85335,2.4e-5 -5.040017,0.960023 -6.560009,2.88 -1.493338,1.920019 -2.240004,4.69335 -2.24,8.32 -4e-6,3.626676 0.733329,6.400006 2.2,8.32 1.466659,1.893338 3.573329,2.839998 6.320009,2.839998 2.53332,0 4.86665,-0.84 7,-2.519998 l 0.32,0.12 -0.16,1.959998 c -2.29335,1.52 -4.72002,2.28 -7.28,2.28 -3.36001,0 -5.960015,-1.10666 -7.800009,-3.319998 -1.813336,-2.239995 -2.720002,-5.426658 -2.72,-9.56 -2e-6,-4.18665 0.946664,-7.413313 2.84,-9.68 1.919993,-2.293309 4.639999,-3.439974 8.160009,-3.44 m -14.308134,22.32 -3.28,-0.04 -0.68,0 0.08,7.039998 -0.16,0.2 -1.56,0.16 -0.16,-0.2 0.08,-7.199998 -8.04,0 -2.16,0.04 -0.2,-0.24 0,-1.4 10.24,-14.72 1.92,0 -0.04,14.6 3.96,0 0.2,0.24 -0.2,1.52 m -5.68,-13.56 -0.24,0 -8.2,11.8 8.44,0 0,-11.8 m -12.696875,-6.72 -4.28,-0.12 -3.12,0 -0.12,15.96 0.08,7.879998 -2.08,0 0.12,-7.759998 -0.12,-16.08 -3.12,0 -4.36,0.12 -0.16,-0.24 0.2,-1.6 16.96,0 0.2,0.24 -0.2,1.6 m -22.274375,23.719998 -2.08,0 0.12,-7.759998 -0.12,-17.8 2.12,0 -0.12,17.68 0.08,7.879998 M 27.994861,37.249693 c 3.62665,2.6e-5 6.399981,1.040024 8.32,3.12 1.946643,2.08002 2.919976,5.066684 2.92,8.96 -2.4e-5,4.453342 -1.02669,7.880006 -3.08,10.28 -2.053352,2.373338 -5.000016,3.559998 -8.84,3.559998 -2.00001,0 -4.666674,-0.0667 -8,-0.2 l 0.12,-7.759998 -0.12,-17.8 8.68,-0.16 m -0.4,24.159998 c 3.066651,0 5.413315,-1 7.04,-2.999998 1.653312,-1.999994 2.479978,-4.906657 2.48,-8.72 -2.2e-5,-3.519983 -0.786688,-6.173314 -2.36,-7.96 -1.573351,-1.81331 -3.866682,-2.719976 -6.88,-2.72 -1.546678,2.4e-5 -3.693342,0.06669 -6.44,0.2 l -0.12,15.88 0.08,6.079998 c 2.453325,0.16 4.519989,0.24 6.2,0.24"
       inkscape:connector-curvature="0" />
    <text
       xml:space="preserve"
       style="font-style:normal;font-variant:normal;font-weight:normal;font-stretch:normal;font-size:40px;line-height:125%;font-family:Sans;-inkscape-font-specification:Sans;text-align:start;letter-spacing:0px;word-spacing:0px;writing-mode:lr-tb;text-anchor:start;fill:#000000;fill-opacity:1;stroke:none;stroke-width:1px;stroke-linecap:butt;stroke-linejoin:miter;stroke-opacity:1"
       x="24.891598"
       y="103.17397"
       id="text3372"
       sodipodi:linespacing="125%"><tspan
         sodipodi:role="line"
         id="tspan3374"
         x="24.891598"
         y="103.17397"
         style="font-style:normal;font-variant:normal;font-weight:normal;font-stretch:normal;font-size:15px;font-family:Raleway;-inkscape-font-specification:Raleway" /></text>
    <text
       xml:space="preserve"
       style="font-style:normal;font-variant:normal;font-weight:normal;font-stretch:normal;font-size:15px;line-height:125%;font-family:Sans;-inkscape-font-specification:Sans;text-align:start;letter-spacing:0px;word-spacing:0px;writing-mode:lr-tb;text-anchor:start;fill:#000000;fill-opacity:1;stroke:none;stroke-width:1px;stroke-linecap:butt;stroke-linejoin:miter;stroke-opacity:1"
       x="34.633583"
       y="92.809242"
       id="text3345-6"
       sodipodi:linespacing="125%"><tspan
         sodipodi:role="line"
         id="tspan3347-9"
         x="34.633583"
         y="92.809242"
         style="font-style:normal;font-variant:normal;font-weight:normal;font-stretch:normal;font-size:15px;font-family:Raleway;-inkscape-font-specification:Raleway" /><tspan
         sodipodi:role="line"
         x="34.633583"
         y="111.55924"
         style="font-style:normal;font-variant:normal;font-weight:normal;font-stretch:normal;font-size:15px;font-family:Raleway;-inkscape-font-specification:Raleway"
         id="tspan3349-6" /></text>
    <text
       xml:space="preserve"
       style="font-style:normal;font-variant:normal;font-weight:normal;font-stretch:normal;font-size:40px;line-height:125%;font-family:Sans;-inkscape-font-specification:Sans;text-align:start;letter-spacing:0px;word-spacing:0px;writing-mode:lr-tb;text-anchor:start;fill:#000000;fill-opacity:1;stroke:none;stroke-width:1px;stroke-linecap:butt;stroke-linejoin:miter;stroke-opacity:1"
       x="42.242416"
       y="83.332802"
       id="text3372-5"
       sodipodi:linespacing="125%"><tspan
         sodipodi:role="line"
         id="tspan3374-6"
         x="42.242416"
         y="83.332802"
         style="font-style:normal;font-variant:normal;font-weight:normal;font-stretch:normal;font-size:15px;font-family:Raleway;-inkscape-font-specification:Raleway" /></text>
    <text
       xml:space="preserve"
       style="font-style:normal;font-variant:normal;font-weight:normal;font-stretch:normal;font-size:40px;line-height:125%;font-family:Sans;-inkscape-font-specification:Sans;text-align:start;letter-spacing:0px;word-spacing:0px;writing-mode:lr-tb;text-anchor:start;fill:#000000;fill-opacity:1;stroke:none;stroke-width:1px;stroke-linecap:butt;stroke-linejoin:miter;stroke-opacity:1"
       x="42.494957"
       y="103.53585"
       id="text3372-2"
       sodipodi:linespacing="125%"><tspan
         sodipodi:role="line"
         id="tspan3374-8"
         x="42.494957"
         y="103.53585"
         style="font-style:normal;font-variant:normal;font-weight:normal;font-stretch:normal;font-size:15px;font-family:Raleway;-inkscape-font-specification:Raleway" /></text>
    <text
       xml:space="preserve"
       style="font-style:normal;font-variant:normal;font-weight:normal;font-stretch:normal;font-size:15px;line-height:125%;font-family:Sans;-inkscape-font-specification:Sans;text-align:start;letter-spacing:0px;word-spacing:0px;writing-mode:lr-tb;text-anchor:start;fill:#000000;fill-opacity:1;stroke:none;stroke-width:1px;stroke-linecap:butt;stroke-linejoin:miter;stroke-opacity:1"
       x="54.584095"
       y="82.202652"
       id="text3345-6-4"
       sodipodi:linespacing="125%"><tspan
         sodipodi:role="line"
         id="tspan3347-9-3"
         x="54.584095"
         y="82.202652"
         style="font-style:normal;font-variant:normal;font-weight:normal;font-stretch:normal;font-size:15px;font-family:Raleway;-inkscape-font-specification:Raleway" /><tspan
         sodipodi:role="line"
         x="54.584095"
         y="100.95265"
         style="font-style:normal;font-variant:normal;font-weight:normal;font-stretch:normal;font-size:15px;font-family:Raleway;-inkscape-font-specification:Raleway"
         id="tspan3349-6-3" /></text>
    <text
       xml:space="preserve"
       style="font-style:normal;font-variant:normal;font-weight:normal;font-stretch:normal;font-size:40px;line-height:125%;font-family:Sans;-inkscape-font-specification:Sans;text-align:start;letter-spacing:0px;word-spacing:0px;writing-mode:lr-tb;text-anchor:start;fill:#000000;fill-opacity:1;stroke:none;stroke-width:1px;stroke-linecap:butt;stroke-linejoin:miter;stroke-opacity:1"
       x="24.133986"
       y="95.850357"
       id="text3459"
       sodipodi:linespacing="125%"><tspan
         sodipodi:role="line"
         id="tspan3461"
         x="24.133986"
         y="95.850357" /></text>
  </g>
</svg>
