<?xml version="1.0" encoding="UTF-8" standalone="no"?>
<svg
   xmlns:dc="http://purl.org/dc/elements/1.1/"
   xmlns:cc="http://creativecommons.org/ns#"
   xmlns:rdf="http://www.w3.org/1999/02/22-rdf-syntax-ns#"
   xmlns:svg="http://www.w3.org/2000/svg"
   xmlns="http://www.w3.org/2000/svg"
   width="105.34479mm"
   height="74.579681mm"
   viewBox="0 0 373.26893 264.2587"
   id="svg2"
   version="1.1">
  <defs
     id="defs4" />
  <metadata
     id="metadata7">
    <rdf:RDF>
      <cc:Work
         rdf:about="">
        <dc:format>image/svg+xml</dc:format>
        <dc:type
           rdf:resource="http://purl.org/dc/dcmitype/StillImage" />
        <dc:title></dc:title>
      </cc:Work>
    </rdf:RDF>
  </metadata>
  <g
     id="layer1"
     transform="translate(-261.39281,-424.78272)">
    <g
       id="Captions"
       transform="matrix(3.5909639,0,0,3.4500095,268.4798,384.50557)" />
    <path
       d="m 166.23633,3.5429688 c -42.38774,0 -76.757814,33.0227682 -76.757814,73.7363282 0,1.74226 0.145804,3.452862 0.271484,5.164062 -7.78881,-3.50866 -16.451084,-5.523437 -25.615234,-5.523437 -33.46419,-0.003 -60.5917972,27.868438 -60.5917972,60.015628 0,32.14719 27.1276072,60 60.5917972,60 l 256.710934,0 c 23.07912,0 41.79297,-19.76579 41.79297,-41.93555 0,-22.17666 -18.71385,-41.94531 -41.79297,-41.94531 -0.0756,0 -0.15413,0.0176 -0.24023,0.0176 0.0503,-0.76246 0.24023,-1.49374 0.24023,-2.27344 0,-24.553722 -20.71623,-44.445314 -46.26953,-44.445314 -12.27751,0 -23.37353,4.667648 -31.65429,12.167968 0.0108,-0.41745 0.0703,-0.824737 0.0703,-1.242187 0,-40.71367 -34.36094,-73.7363282 -76.75586,-73.7363282 z m 0.21289,19.6132812 c 0.74366,0.04331 2.51161,0.50377 9.43555,2.3125 31.38086,8.19756 37.25195,9.755629 37.25195,9.886719 0,0.0802 -4.5417,1.419382 -10.09375,2.976562 -5.55205,1.55719 -10.16936,2.898039 -10.25977,2.980469 -0.12349,0.11256 0.0765,0.444088 0.80469,1.330078 1.56072,1.89882 4.14649,5.875123 4.14649,6.376953 0,0.0947 -1.05913,0.144531 -3.10938,0.144531 l -3.10938,0 -0.66406,-0.9375 c -4.34978,-6.14958 -10.2498,-10.23124 -17.38867,-12.03125 -4.36208,-1.099859 -9.44211,-1.125632 -13.97266,-0.07031 -2.9691,0.69158 -7.05006,2.45228 -9.48828,4.09375 -3.23425,2.17739 -6.30813,5.213878 -8.25195,8.148438 l -0.5293,0.796874 -3.10156,0 c -2.76719,0 -3.10352,-0.02415 -3.10352,-0.224609 0,-0.64003 2.95136,-5.044234 4.77149,-7.121094 0.43063,-0.49138 0.73388,-0.941903 0.67383,-1.001953 -0.06,-0.06 -1.66399,-0.488862 -3.56446,-0.951172 l -3.45703,-0.839843 -0.44336,0.316406 c -0.24444,0.17424 -1.14088,0.936169 -1.99218,1.693359 -5.24712,4.66705 -9.80793,11.146771 -12.97461,18.431641 l -0.64844,1.490234 0.16602,2.34375 c 0.16793,2.36814 0.13907,2.807355 -0.1836,2.771485 -0.0978,-0.0109 -1.36443,-0.103522 -2.81445,-0.207032 -1.45002,-0.10351 -2.711,-0.20008 -2.80274,-0.21289 -0.0944,-0.0132 0.0259,-0.265102 0.27735,-0.582032 3.1365,-3.9538 3.43053,-4.363243 3.71484,-5.152343 2.74042,-7.60608 7.1949,-14.112037 13.5625,-19.810547 0.93948,-0.84076 1.65753,-1.575463 1.5957,-1.632813 -0.0618,-0.0573 -2.53649,-0.68681 -5.5,-1.40039 -2.96352,-0.71358 -5.45992,-1.342745 -5.54687,-1.396485 -0.087,-0.0537 -0.12019,-0.133707 -0.0742,-0.179687 0.0639,-0.0639 42.74701,-11.43021 46.11914,-12.28125 0.17342,-0.04377 0.3068,-0.07498 0.55469,-0.06055 z m 0.11133,29.644531 c 3.14903,-0.04108 6.11323,2.054781 6.96679,5.261719 0.42277,1.58841 0.17715,3.716641 -0.59765,5.175781 -0.50083,0.94318 -2.01018,2.419356 -2.94922,2.884766 -1.58413,0.78514 -3.35796,0.989881 -5.04297,0.582031 -1.25444,-0.30363 -2.35168,-0.962616 -3.33398,-2.003906 -1.02082,-1.08213 -1.54924,-2.105215 -1.84961,-3.578125 -0.67244,-3.29744 1.37722,-6.818083 4.62109,-7.939453 0.72262,-0.249801 1.45885,-0.373333 2.18555,-0.382813 z m 30.98437,3.023438 c 2.34148,0 2.54921,0.01965 2.67774,0.259765 0.18498,0.34564 0.78718,3.360182 1.00195,5.013672 0.27808,2.14092 0.20475,6.516385 -0.14844,8.859375 -0.91469,6.06793 -3.11843,11.351 -6.78515,16.25586 -1.3051,1.7458 -4.35106,4.887843 -5.99219,6.183593 -5.37623,4.24478 -11.88996,6.900372 -18.51367,7.544922 -2.01239,0.195824 -5.60699,0.161784 -7.52149,-0.07031 -9.16263,-1.1109 -17.47953,-5.710123 -23.22851,-12.845703 -3.21729,-3.99327 -5.56136,-8.747067 -6.78321,-13.753907 -0.74647,-3.05883 -0.90768,-4.543132 -0.90625,-8.289062 0.001,-3.59437 0.15008,-5.05523 0.79883,-7.78125 l 0.3125,-1.306641 2.66602,-0.03906 c 1.46705,-0.0207 2.66817,-0.0207 2.66797,0 -1.4e-4,0.0207 -0.18414,0.76401 -0.40821,1.65039 -2.63492,10.42293 0.28862,21.135325 7.81836,28.646485 2.57317,2.56682 4.81235,4.166905 8.06055,5.759765 8.22506,4.0334 17.96277,4.027965 26.22656,-0.01563 9.20799,-4.50559 15.52935,-13.534788 16.5918,-23.699218 0.35676,-3.41313 -0.0186,-8.110061 -0.88477,-11.087891 -0.18287,-0.62863 -0.30086,-1.173751 -0.26172,-1.212891 0.0391,-0.0391 1.21487,-0.07227 2.61133,-0.07227 z m -49.07031,2.566406 c 1.07688,8e-5 1.4442,0.05925 2.00195,0.316406 2.68659,1.23856 3.83136,4.279922 2.59571,6.894531 -1.10616,2.3406 -3.88976,3.540681 -6.22266,2.681641 -1.6601,-0.6113 -2.68063,-1.637134 -3.25977,-3.277344 -0.21559,-0.61057 -0.26383,-1.025615 -0.21679,-1.853515 0.11004,-1.93653 1.21496,-3.557618 2.99609,-4.392578 0.67956,-0.31857 0.9679,-0.369231 2.10547,-0.369141 z m 36.35547,0.002 c 1.13818,-4.6e-4 1.42555,0.04841 2.10547,0.367188 2.90193,1.36037 3.92409,4.932997 2.16211,7.554687 -1.17746,1.75198 -3.505,2.630698 -5.52539,2.085938 -0.92509,-0.24943 -1.81553,-0.816788 -2.53516,-1.617188 -0.86757,-0.96495 -1.24688,-1.991244 -1.25781,-3.396484 -0.008,-0.96711 0.0481,-1.229033 0.42968,-2.039063 0.53688,-1.13956 1.3892,-2.017431 2.47852,-2.550781 0.7333,-0.35904 0.96936,-0.403777 2.14258,-0.404297 z m -24.19531,8.257813 c 0.87754,-0.003 1.0754,0.04925 1.75585,0.458984 1.71538,1.03296 3.9806,1.420542 5.92774,1.013672 0.6045,-0.12631 1.5763,-0.487488 2.32031,-0.861328 1.25167,-0.62894 1.30644,-0.64263 2.38281,-0.59375 0.95792,0.0435 1.17946,0.105403 1.69922,0.470703 0.32871,0.23103 0.78682,0.724466 1.01758,1.097656 l 0.41992,0.679688 0.0371,11.341796 0.0371,11.34375 -0.73047,0.273438 c -1.06657,0.39822 -3.43879,0.967381 -5.0332,1.207031 -1.79332,0.26955 -5.039,0.363816 -6.7832,0.197266 -1.65116,-0.15767 -3.76722,-0.571326 -5.32422,-1.041016 l -1.14453,-0.345703 0,-11.378906 c 0,-12.54784 -0.0426,-11.909883 0.875,-12.876953 0.66658,-0.70258 1.38821,-0.982768 2.54297,-0.986328 z m 19.84961,2.089843 c 0.36676,0.01096 0.6277,0.113327 1.17382,0.404297 2.08873,1.11328 4.48271,1.111101 6.46485,-0.0059 1.14674,-0.64636 2.29721,-0.509316 3.11133,0.371094 0.5738,0.62051 0.67103,1.262748 0.67187,4.455078 l 0,2.943359 -0.62305,1.191406 c -2.62279,5.0141 -7.04059,9.425981 -11.88672,11.869141 -0.96342,0.48571 -1.07907,0.514087 -1.24804,0.310547 -0.15125,-0.18221 -0.19423,-2.063038 -0.22461,-9.986328 -0.0365,-9.52149 -0.0301,-9.772895 0.24023,-10.302735 0.38769,-0.75994 1.00328,-1.159655 1.9043,-1.234375 0.16034,-0.0133 0.29376,-0.01928 0.41602,-0.01563 z m -27.63477,0.0039 c 0.13027,-0.0057 0.26838,0.0018 0.43555,0.01563 0.79605,0.066 1.28242,0.33921 1.77148,0.99414 0.28175,0.3773 0.28736,0.530454 0.32422,10.152344 0.032,8.33813 0.008,9.841563 -0.16602,10.257812 -0.12704,0.30404 -0.29734,0.487769 -0.45312,0.486329 -0.13745,-0.001 -0.78099,-0.287386 -1.42969,-0.634766 -3.35251,-1.79531 -6.24897,-4.130004 -8.55664,-6.896484 -1.0948,-1.31247 -2.4172,-3.213958 -3.00977,-4.330079 l -0.36718,-0.691406 0.004,-3.470703 c 0.002,-1.90853 0.0595,-3.714312 0.12891,-4.013672 0.25192,-1.0862 1.02491,-1.760652 2.12109,-1.851562 0.64369,-0.0534 0.8589,9.41e-4 1.66016,0.425781 1.1867,0.62956 2.23671,0.842973 3.69922,0.751953 1.00645,-0.0626 1.32089,-0.1494 2.34375,-0.65625 0.78857,-0.39075 1.10332,-0.52195 1.49414,-0.539062 z M 62.693359,113.74023 c 5.00405,0.005 8.139432,0.056 9.107422,0.1543 6.63031,0.67342 10.931514,3.24314 13.152344,7.85352 1.31204,2.72376 1.894848,6.00008 1.679687,9.45312 -0.33866,5.43464 -2.799162,9.69516 -6.695312,11.59571 -0.83085,0.40528 -1.514531,0.82032 -1.519531,0.92187 -0.0049,0.10155 0.42807,0.37413 0.96289,0.60547 1.32235,0.57199 2.896633,1.842 3.601563,2.90625 1.63749,2.47217 2.101871,5.31574 2.43164,14.85937 0.19376,5.60756 0.436274,7.18466 1.277344,8.32227 0.21346,0.28872 0.388672,0.61114 0.388672,0.7168 0,0.12923 -2.023741,0.1914 -6.18164,0.1914 l -6.179688,0 -0.267578,-0.41406 c -0.69605,-1.08631 -1.004586,-3.52062 -1.222656,-9.64844 -0.24696,-6.94032 -0.891996,-9.52306 -2.728516,-10.92383 -1.58307,-1.20745 -1.851922,-1.24224 -10.607422,-1.31054 L 52,148.96289 l 0,10.88672 c 0,5.98809 -0.05168,11.01906 -0.113281,11.17969 -0.0989,0.2577 -0.793733,0.29101 -5.914063,0.29101 -4.52821,0 -5.820225,-0.0509 -5.890625,-0.23437 -0.0499,-0.12932 -0.06842,-12.07278 -0.04102,-26.54102 l 0.04883,-26.30469 0.40039,-0.86523 c 0.53785,-1.1638 1.783886,-2.47855 2.916016,-3.07617 l 0.929688,-0.49024 12.740234,-0.0586 c 2.07214,-0.01 3.949167,-0.0108 5.617187,-0.01 z m 147.232421,0.18555 c 5.93889,0.0327 7.83557,0.2121 10.1211,0.71094 4.68075,1.02159 8.00385,3.37471 9.72851,6.89062 1.17737,2.40021 1.40225,3.47863 1.40625,6.77539 0.004,3.1877 -0.28458,4.53747 -1.44336,6.73829 -0.72029,1.36802 -2.6042,3.28748 -4.13867,4.21875 -0.63467,0.38519 -1.1543,0.8225 -1.1543,0.97265 0,0.15016 0.31256,0.40343 0.69336,0.56055 0.3808,0.15711 1.36658,0.73097 2.19141,1.27734 4.27498,2.83179 6.0039,6.64955 5.74023,12.6836 -0.12365,2.82963 -0.57011,4.86433 -1.51172,6.90234 -2.23617,4.83988 -6.11865,7.56183 -12.77929,8.95703 -1.9617,0.41092 -2.24156,0.41927 -17.18164,0.48047 l -15.18555,0.0625 0,-26.28711 c 0,-23.65382 0.03,-26.37509 0.29687,-27.1582 0.40357,-1.18444 1.84644,-2.72512 3.06836,-3.27735 l 0.97266,-0.4414 11.72461,-0.0566 c 3.04192,-0.014 5.47153,-0.0187 7.45117,-0.008 l 0,-0.002 z m -150.265624,9.61719 -7.568359,0.0508 -0.04883,7.61523 -0.04687,7.61719 8.001953,0 c 7.31489,0 8.125437,-0.0304 9.404297,-0.35742 1.89314,-0.48418 2.702438,-0.93041 3.699218,-2.03906 1.331021,-1.48041 1.926133,-3.86784 1.601563,-6.42774 -0.45401,-3.58079 -2.643994,-5.75974 -6.365234,-6.33789 -0.60929,-0.0946 -4.514255,-0.14909 -8.677735,-0.12109 z m 137.738284,0.0508 -0.0508,6.0918 c -0.0268,3.35032 -0.005,6.19981 0.0469,6.33398 0.0762,0.1986 1.66249,0.23244 8.54102,0.17774 7.4957,-0.0596 8.56385,-0.10357 9.46484,-0.39649 2.08774,-0.67874 3.47809,-1.94759 4.07031,-3.71289 0.13713,-0.40873 0.24614,-1.49465 0.24414,-2.43164 -0.004,-1.53469 -0.0607,-1.80929 -0.60742,-2.91992 -0.73513,-1.49325 -1.78091,-2.3257 -3.52344,-2.8086 -1.07584,-0.29817 -2.07972,-0.33398 -9.69336,-0.33398 l -8.49218,0 z m -84.85352,2.19141 c 3.37699,0.006 6.88954,0.61741 9.65235,1.76757 3.92185,1.63267 7.31564,5.06884 9.11914,9.23243 1.41257,3.26113 2.0522,6.59928 2.23047,11.64257 0.0967,2.73698 0.0711,3.26738 -0.16211,3.46094 -0.21256,0.17642 -3.53591,0.24085 -14.56641,0.27735 l -14.29102,0.0469 -0.0586,0.71289 c -0.0871,1.06057 0.47391,3.56206 1.08789,4.85156 0.61115,1.28363 1.93717,2.84787 2.96094,3.49414 1.3178,0.83189 2.76411,1.18755 4.82031,1.18555 3.24246,-0.004 5.20684,-0.77554 6.9043,-2.70898 1.70802,-1.94545 1.85778,-1.98484 7.42578,-2.05664 2.57214,-0.0332 4.78948,-0.0167 4.92969,0.0371 0.21472,0.0824 0.21103,0.2526 -0.0293,1.07617 -0.37597,1.28841 -1.72411,4.13937 -2.48633,5.25781 -0.8654,1.26981 -2.82728,3.26633 -4.23828,4.3125 -4.19819,3.11269 -10.81918,4.5134 -16.88672,3.57617 -2.20402,-0.34045 -3.91618,-0.87031 -5.77734,-1.78906 -4.081903,-2.01498 -7.584336,-6.16632 -9.152346,-10.84766 -1.96343,-5.86187 -2.013528,-14.6813 -0.117188,-20.48437 2.09432,-6.40884 6.657554,-10.7956 12.892574,-12.39063 1.73857,-0.44476 3.71599,-0.65829 5.74219,-0.65429 z m 46.07031,0 c 0.63903,-0.0119 1.24133,-0.003 1.76368,0.0273 6.96454,0.4111 11.8008,2.50378 14.6289,6.33203 1.46999,1.98988 2.72657,5.42291 2.72657,7.44922 l 0,0.89453 -3.9375,0 c -5.37455,0 -5.32193,0.0173 -7.95899,-2.67383 -1.94382,-1.98363 -2.1068,-2.10642 -3.33594,-2.48828 -2.6135,-0.81196 -6.21677,-0.67072 -8.21679,0.32031 -1.22328,0.60616 -1.85026,1.57633 -1.87696,2.90625 -0.0285,1.42135 0.94335,2.34632 3.54688,3.37696 1.28016,0.50677 6.03343,1.75522 8.57812,2.2539 1.47339,0.28872 5.31734,1.53865 7.17969,2.33399 4.12495,1.76163 6.35773,4.01232 7.22852,7.28711 0.85904,3.23061 0.34786,7.50414 -1.26758,10.59375 -0.87481,1.6731 -3.52702,4.23225 -5.38672,5.19726 -2.58026,1.33892 -5.49026,2.09899 -9.41602,2.46094 -1.90068,0.17523 -5.5249,0.20704 -7.20117,0.0625 -3.37711,-0.29119 -6.47395,-1.10629 -8.86133,-2.33203 -1.97048,-1.0117 -4.54377,-3.54108 -5.38867,-5.29688 -1.08282,-2.25024 -1.53057,-4.15496 -1.5332,-6.51171 l -0.002,-1.24805 5.58007,0.0488 5.58008,0.0488 0.29492,1.10743 c 0.40889,1.53761 0.94107,2.49149 1.84766,3.31054 3.201,2.89189 11.34518,2.81278 13.71875,-0.13281 0.46552,-0.57772 0.57683,-0.904 0.63867,-1.875 0.0738,-1.15861 0.0641,-1.18549 -0.67773,-1.99023 -1.25528,-1.36183 -3.52785,-2.27126 -7.68946,-3.07422 -2.37063,-0.4574 -7.3844,-1.87485 -9.25585,-2.61719 -5.31377,-2.10778 -7.99947,-4.7918 -8.85938,-8.85352 -0.60709,-2.86761 -0.0873,-6.32106 1.375,-9.13867 0.80868,-1.5582 3.28101,-4.11815 4.89062,-5.0625 1.32203,-0.77562 4.03269,-1.80829 5.6543,-2.15429 1.46138,-0.31182 3.71574,-0.52667 5.63281,-0.5625 z m 100.58985,0.33007 c 1.48753,-0.008 2.90042,0.0362 3.85742,0.14454 7.89628,0.89403 12.50366,4.02335 13.73438,9.33007 0.25417,1.09609 0.28245,2.66315 0.22265,11.80469 -0.0663,10.12972 -0.0848,10.60058 -0.47265,12.07617 -0.52406,1.99363 -1.02334,3.15939 -2.01758,4.71875 -1.57207,2.46566 -3.72675,4.34198 -6.375,5.54883 -2.86024,1.30345 -5.23989,1.81091 -9.99414,2.12695 -3.2337,0.21457 -3.6318,0.21449 -5.65039,-0.004 -1.78884,-0.19361 -4.29965,-0.93022 -5.86719,-1.72071 -4.89735,-2.46961 -6.87773,-6.24852 -6.63477,-12.66601 0.10615,-2.80318 0.39156,-4.09467 1.33399,-6.02539 1.15919,-2.37476 3.80421,-4.36893 7.59179,-5.72266 2.3581,-0.84282 3.27563,-1.04463 7.82422,-1.73047 2.08174,-0.31389 4.40406,-0.73915 5.16211,-0.94336 1.76941,-0.47665 3.42033,-1.35906 4.02539,-2.15234 0.56341,-0.73866 0.75623,-2.23292 0.41992,-3.25195 -0.56177,-1.70214 -2.99752,-2.69883 -6.93164,-2.83985 -3.5661,-0.12783 -5.51517,0.48114 -6.9375,2.16797 l -0.78125,0.92578 -5.23437,0 -5.23242,0 0,-0.42773 c 0,-0.64953 0.53516,-2.31342 1.10937,-3.45117 1.94312,-3.85018 5.45033,-6.34157 10.52344,-7.47656 1.15486,-0.25838 3.845,-0.41795 6.32422,-0.43165 z m 60.88086,0.89258 -0.008,4.66211 -0.008,4.66406 -11.72461,12.53125 c -6.44824,6.89244 -11.69243,12.62586 -11.65429,12.74024 0.0505,0.1514 3.39135,0.20703 12.28515,0.20703 l 12.2168,0 0,4.75391 c 0,2.61487 -0.0625,4.73389 -0.13867,4.70898 -0.0762,-0.0249 -8.71632,-0.0654 -19.20117,-0.0918 l -19.0625,-0.0488 0.008,-4.29102 0.01,-4.29297 11.89844,-13.10937 c 6.54471,-7.20992 11.87822,-13.23245 11.85156,-13.38477 -0.0421,-0.24039 -1.26678,-0.28902 -9.27734,-0.36914 -8.95652,-0.0896 -9.25554,-0.10458 -10.08984,-0.49023 -1.11925,-0.51736 -2.262,-1.71138 -2.68164,-2.79883 -0.2559,-0.66318 -0.33594,-1.38583 -0.33594,-3.08203 l 0,-2.21485 17.95703,-0.0469 17.95508,-0.0469 z m -206.94141,8.51953 c -0.22866,-10e-4 -0.46327,0.003 -0.70117,0.0137 -1.66528,0.0741 -2.02142,0.15462 -3.24219,0.73437 -1.63142,0.77475 -2.9985,2.07808 -3.71484,3.54102 -0.76516,1.56266 -1.30257,4.23455 -0.92774,4.60937 0.0677,0.0677 3.88866,0.125 8.49219,0.125 l 8.36914,0 0,-0.78906 c 0,-0.94516 -0.59954,-3.19891 -1.13476,-4.26172 -1.32356,-2.62827 -3.71082,-3.95646 -7.14063,-3.97266 z m 92.37695,10.17383 -8.12304,0.0488 -0.0488,7.65039 c -0.0378,5.99342 0.001,7.68497 0.18359,7.80859 0.12806,0.0867 3.93034,0.12148 8.44922,0.0801 6.59787,-0.0605 8.45974,-0.13161 9.44922,-0.36328 2.54181,-0.59512 4.43999,-1.90646 5.28516,-3.65234 0.61135,-1.26282 0.87843,-3.54194 0.625,-5.33399 -0.37301,-2.63764 -1.5514,-4.33528 -3.68164,-5.31054 -1.90298,-0.87118 -3.31011,-0.98004 -12.13868,-0.92774 z m 61.20508,3.05274 -0.50586,0.10351 c -0.27925,0.0571 -1.4793,0.44373 -2.66601,0.85742 -1.18671,0.41369 -3.43124,1.03626 -4.98633,1.38477 -3.24714,0.72768 -3.99898,0.97224 -5.53516,1.79101 -1.93609,1.03192 -2.84064,2.82415 -2.69726,5.34766 0.14016,2.46701 1.15414,3.97032 3.22461,4.7793 1.14938,0.44906 4.45969,0.4941 6.06445,0.082 1.79515,-0.46096 3.04256,-1.17009 4.3457,-2.47266 2.1697,-2.16872 2.74991,-4.01198 2.75391,-8.75976 l 0.004,-3.11328 -0.002,0 z"
       transform="translate(264.93646,456.67281)"
       id="path3807"
       style="fill:#ffffff" />
    <text
       xml:space="preserve"
       style="font-style:normal;font-variant:normal;font-weight:normal;font-stretch:normal;font-size:111.10164642px;line-height:125%;font-family:Sans;-inkscape-font-specification:Sans;text-align:start;letter-spacing:0px;word-spacing:0px;writing-mode:lr-tb;text-anchor:start;fill:#000000;fill-opacity:1;stroke:none;stroke-width:1px;stroke-linecap:butt;stroke-linejoin:miter;stroke-opacity:1"
       x="331.66534"
       y="737.72217"
       id="text3372"><tspan
         id="tspan3374"
         x="331.66534"
         y="737.72217"
         style="font-style:normal;font-variant:normal;font-weight:normal;font-stretch:normal;font-size:41.66311646px;font-family:Raleway;-inkscape-font-specification:Raleway" /></text>
    <text
       xml:space="preserve"
       style="font-style:normal;font-variant:normal;font-weight:normal;font-stretch:normal;font-size:41.66311646px;line-height:125%;font-family:Sans;-inkscape-font-specification:Sans;text-align:start;letter-spacing:0px;word-spacing:0px;writing-mode:lr-tb;text-anchor:start;fill:#000000;fill-opacity:1;stroke:none;stroke-width:1px;stroke-linecap:butt;stroke-linejoin:miter;stroke-opacity:1"
       x="358.72412"
       y="708.93372"
       id="text3345-6"><tspan
         id="tspan3347-9"
         x="358.72412"
         y="708.93372"
         style="font-style:normal;font-variant:normal;font-weight:normal;font-stretch:normal;font-size:41.66311646px;font-family:Raleway;-inkscape-font-specification:Raleway" /><tspan
         x="358.72412"
         y="761.01263"
         style="font-style:normal;font-variant:normal;font-weight:normal;font-stretch:normal;font-size:41.66311646px;font-family:Raleway;-inkscape-font-specification:Raleway"
         id="tspan3349-6" /></text>
    <text
       xml:space="preserve"
       style="font-style:normal;font-variant:normal;font-weight:normal;font-stretch:normal;font-size:111.10164642px;line-height:125%;font-family:Sans;-inkscape-font-specification:Sans;text-align:start;letter-spacing:0px;word-spacing:0px;writing-mode:lr-tb;text-anchor:start;fill:#000000;fill-opacity:1;stroke:none;stroke-width:1px;stroke-linecap:butt;stroke-linejoin:miter;stroke-opacity:1"
       x="379.85797"
       y="682.61249"
       id="text3372-5"><tspan
         id="tspan3374-6"
         x="379.85797"
         y="682.61249"
         style="font-style:normal;font-variant:normal;font-weight:normal;font-stretch:normal;font-size:41.66311646px;font-family:Raleway;-inkscape-font-specification:Raleway" /></text>
    <text
       xml:space="preserve"
       style="font-style:normal;font-variant:normal;font-weight:normal;font-stretch:normal;font-size:111.10164642px;line-height:125%;font-family:Sans;-inkscape-font-specification:Sans;text-align:start;letter-spacing:0px;word-spacing:0px;writing-mode:lr-tb;text-anchor:start;fill:#000000;fill-opacity:1;stroke:none;stroke-width:1px;stroke-linecap:butt;stroke-linejoin:miter;stroke-opacity:1"
       x="380.55942"
       y="738.72729"
       id="text3372-2"><tspan
         id="tspan3374-8"
         x="380.55942"
         y="738.72729"
         style="font-style:normal;font-variant:normal;font-weight:normal;font-stretch:normal;font-size:41.66311646px;font-family:Raleway;-inkscape-font-specification:Raleway" /></text>
    <text
       xml:space="preserve"
       style="font-style:normal;font-variant:normal;font-weight:normal;font-stretch:normal;font-size:41.66311646px;line-height:125%;font-family:Sans;-inkscape-font-specification:Sans;text-align:start;letter-spacing:0px;word-spacing:0px;writing-mode:lr-tb;text-anchor:start;fill:#000000;fill-opacity:1;stroke:none;stroke-width:1px;stroke-linecap:butt;stroke-linejoin:miter;stroke-opacity:1"
       x="414.13748"
       y="679.47345"
       id="text3345-6-4"><tspan
         id="tspan3347-9-3"
         x="414.13748"
         y="679.47345"
         style="font-style:normal;font-variant:normal;font-weight:normal;font-stretch:normal;font-size:41.66311646px;font-family:Raleway;-inkscape-font-specification:Raleway" /><tspan
         x="414.13748"
         y="731.55237"
         style="font-style:normal;font-variant:normal;font-weight:normal;font-stretch:normal;font-size:41.66311646px;font-family:Raleway;-inkscape-font-specification:Raleway"
         id="tspan3349-6-3" /></text>
    <text
       xml:space="preserve"
       style="font-style:normal;font-variant:normal;font-weight:normal;font-stretch:normal;font-size:111.10164642px;line-height:125%;font-family:Sans;-inkscape-font-specification:Sans;text-align:start;letter-spacing:0px;word-spacing:0px;writing-mode:lr-tb;text-anchor:start;fill:#000000;fill-opacity:1;stroke:none;stroke-width:1px;stroke-linecap:butt;stroke-linejoin:miter;stroke-opacity:1"
       x="329.56104"
       y="717.38049"
       id="text3459"><tspan
         id="tspan3461"
         x="329.56104"
         y="717.38049" /></text>
  </g>
</svg>
