<?xml version="1.0" encoding="UTF-8" standalone="no"?>
<!DOCTYPE svg PUBLIC "-//W3C//DTD SVG 1.1//EN"
 "http://www.w3.org/Graphics/SVG/1.1/DTD/svg11.dtd">
<!-- Generated by graphviz version 2.38.0 (20140413.2041)
 -->
<!-- Title: G Pages: 1 -->
<svg width="752pt" height="172pt"
 viewBox="0.00 0.00 752.45 172.00" xmlns="http://www.w3.org/2000/svg" xmlns:xlink="http://www.w3.org/1999/xlink">
<g id="graph0" class="graph" transform="scale(1 1) rotate(0) translate(4 168)">
<title>G</title>
<polygon fill="white" stroke="none" points="-4,4 -4,-168 748.453,-168 748.453,4 -4,4"/>
<!-- Client\nBrowser -->
<g id="node1" class="node"><title>Client\nBrowser</title>
<polygon fill="none" stroke="black" points="300.571,-93.3298 246.19,-116.428 191.809,-93.3298 191.86,-55.9563 300.52,-55.9563 300.571,-93.3298"/>
<text text-anchor="middle" x="246.19" y="-86.8" font-family="Times,serif" font-size="14.00">Client</text>
<text text-anchor="middle" x="246.19" y="-71.8" font-family="Times,serif" font-size="14.00">Browser</text>
</g>
<!-- Routing\nServer -->
<g id="node4" class="node"><title>Routing\nServer</title>
<ellipse fill="none" stroke="black" cx="378.806" cy="-83" rx="42.3529" ry="26.7407"/>
<text text-anchor="middle" x="378.806" y="-86.8" font-family="Times,serif" font-size="14.00">Routing</text>
<text text-anchor="middle" x="378.806" y="-71.8" font-family="Times,serif" font-size="14.00">Server</text>
</g>
<!-- Client\nBrowser&#45;&gt;Routing\nServer -->
<g id="edge2" class="edge"><title>Client\nBrowser&#45;&gt;Routing\nServer</title>
<path fill="none" stroke="blue" d="M300.694,-83C309.108,-83 317.793,-83 326.165,-83"/>
<polygon fill="blue" stroke="blue" points="326.181,-86.5001 336.181,-83 326.181,-79.5001 326.181,-86.5001"/>
</g>
<!-- Listener\nHelper -->
<g id="node2" class="node"><title>Listener\nHelper</title>
<ellipse fill="black" stroke="black" cx="500.366" cy="-83" rx="43.2674" ry="26.7407"/>
<text text-anchor="middle" x="500.366" y="-86.8" font-family="Times,serif" font-size="14.00" fill="white">Listener</text>
<text text-anchor="middle" x="500.366" y="-71.8" font-family="Times,serif" font-size="14.00" fill="white">Helper</text>
</g>
<!-- Listener\nHelper&#45;&gt;Routing\nServer -->
<g id="edge6" class="edge"><title>Listener\nHelper&#45;&gt;Routing\nServer</title>
<path fill="none" stroke="black" d="M458.116,-89.4531C449.22,-89.7469 439.717,-89.8227 430.508,-89.6803"/>
<polygon fill="black" stroke="black" points="430.368,-86.1759 420.284,-89.427 430.194,-93.1737 430.368,-86.1759"/>
</g>
<!-- Auth\nHelper -->
<g id="node5" class="node"><title>Auth\nHelper</title>
<ellipse fill="none" stroke="black" cx="616.976" cy="-83" rx="37.4533" ry="26.7407"/>
<text text-anchor="middle" x="616.976" y="-86.8" font-family="Times,serif" font-size="14.00">Auth</text>
<text text-anchor="middle" x="616.976" y="-71.8" font-family="Times,serif" font-size="14.00">Helper</text>
</g>
<!-- Listener\nHelper&#45;&gt;Auth\nHelper -->
<g id="edge3" class="edge"><title>Listener\nHelper&#45;&gt;Auth\nHelper</title>
<path fill="none" stroke="blue" d="M543.717,-83C552.059,-83 560.855,-83 569.328,-83"/>
<polygon fill="blue" stroke="blue" points="569.452,-86.5001 579.452,-83 569.452,-79.5001 569.452,-86.5001"/>
</g>
<!-- Private\nKeys -->
<g id="node7" class="node"><title>Private\nKeys</title>
<polygon fill="none" stroke="black" points="521.866,-38 472.866,-38 472.866,-0 527.866,-0 527.866,-32 521.866,-38"/>
<polyline fill="none" stroke="black" points="521.866,-38 521.866,-32 "/>
<polyline fill="none" stroke="black" points="527.866,-32 521.866,-32 "/>
<text text-anchor="middle" x="500.366" y="-22.8" font-family="Times,serif" font-size="14.00">Private</text>
<text text-anchor="middle" x="500.366" y="-7.8" font-family="Times,serif" font-size="14.00">Keys</text>
</g>
<!-- Listener\nHelper&#45;&gt;Private\nKeys -->
<g id="edge7" class="edge"><title>Listener\nHelper&#45;&gt;Private\nKeys</title>
<path fill="none" stroke="black" stroke-dasharray="1,5" d="M500.366,-45.8334C500.366,-43.3889 500.366,-40.9445 500.366,-38.5"/>
<polygon fill="black" stroke="black" points="496.866,-45.8828 500.366,-55.8828 503.866,-45.8828 496.866,-45.8828"/>
</g>
<!-- Portal -->
<g id="node3" class="node"><title>Portal</title>
<ellipse fill="none" stroke="black" cx="500.366" cy="-146" rx="31.6951" ry="18"/>
<text text-anchor="middle" x="500.366" y="-142.3" font-family="Times,serif" font-size="14.00">Portal</text>
</g>
<!-- Portal&#45;&gt;Listener\nHelper -->
<g id="edge1" class="edge"><title>Portal&#45;&gt;Listener\nHelper</title>
<path fill="none" stroke="RED" d="M500.366,-117.531C500.366,-115.044 500.366,-112.557 500.366,-110.07"/>
<polygon fill="RED" stroke="RED" points="496.866,-117.754 500.366,-127.754 503.866,-117.754 496.866,-117.754"/>
</g>
<!-- Routing\nServer&#45;&gt;Listener\nHelper -->
<g id="edge5" class="edge"><title>Routing\nServer&#45;&gt;Listener\nHelper</title>
<path fill="none" stroke="blue" stroke-dasharray="5,2" d="M420.284,-76.573C429.144,-76.2666 438.637,-76.1782 447.862,-76.3078"/>
<polygon fill="blue" stroke="blue" points="448.037,-79.8128 458.116,-76.5469 448.2,-72.8147 448.037,-79.8128"/>
</g>
<!-- App -->
<g id="node6" class="node"><title>App</title>
<ellipse fill="none" stroke="black" cx="717.453" cy="-83" rx="27" ry="18"/>
<text text-anchor="middle" x="717.453" y="-79.3" font-family="Times,serif" font-size="14.00">App</text>
</g>
<!-- Auth\nHelper&#45;&gt;App -->
<g id="edge4" class="edge"><title>Auth\nHelper&#45;&gt;App</title>
<path fill="none" stroke="blue" d="M654.646,-83C662.951,-83 671.767,-83 680.061,-83"/>
<polygon fill="blue" stroke="blue" points="680.209,-86.5001 690.209,-83 680.209,-79.5001 680.209,-86.5001"/>
</g>
<!-- legend -->
<g id="node8" class="node"><title>legend</title>
<text text-anchor="start" x="21.5" y="-116.8" font-family="Times,serif" font-size="14.00">Client Traffic</text>
<polygon fill="BLUE" stroke="none" points="118,-109 118,-132 154,-132 154,-109 118,-109"/>
<text text-anchor="start" x="14" y="-91.8" font-family="Times,serif" font-size="14.00">Portal API Calls</text>
<polygon fill="RED" stroke="none" points="118,-84 118,-107 154,-107 154,-84 118,-84"/>
<text text-anchor="start" x="12.5" y="-66.8" font-family="Times,serif" font-size="14.00">Tunneled Traffic</text>
<text text-anchor="start" x="122" y="-66.8" font-family="Times,serif" font-size="14.00">– – –</text>
<text text-anchor="start" x="6" y="-41.8" font-family="Times,serif" font-size="14.00">Filesystem Mounts</text>
<text text-anchor="start" x="122.5" y="-41.8" font-family="Times,serif" font-size="14.00">· · · ·</text>
</g>
</g>
</svg>
