<?xml version="1.0" encoding="UTF-8" standalone="no"?>
<!DOCTYPE svg PUBLIC "-//W3C//DTD SVG 1.1//EN"
 "http://www.w3.org/Graphics/SVG/1.1/DTD/svg11.dtd">
<!-- Generated by graphviz version 2.38.0 (20140413.2041)
 -->
<!-- Title: G Pages: 1 -->
<svg width="426pt" height="164pt"
 viewBox="0.00 0.00 426.08 164.00" xmlns="http://www.w3.org/2000/svg" xmlns:xlink="http://www.w3.org/1999/xlink">
<g id="graph0" class="graph" transform="scale(1 1) rotate(0) translate(4 160)">
<title>G</title>
<polygon fill="white" stroke="none" points="-4,4 -4,-160 422.083,-160 422.083,4 -4,4"/>
<!-- Storage Helper -->
<g id="node1" class="node"><title>Storage Helper</title>
<ellipse fill="black" stroke="black" cx="63.6943" cy="-43" rx="63.8893" ry="18"/>
<text text-anchor="middle" x="63.6943" y="-39.3" font-family="Times,serif" font-size="14.00" fill="white">Storage Helper</text>
</g>
<!-- File Server -->
<g id="node3" class="node"><title>File Server</title>
<ellipse fill="none" stroke="black" cx="240.889" cy="-68" rx="50.0912" ry="18"/>
<text text-anchor="middle" x="240.889" y="-64.3" font-family="Times,serif" font-size="14.00">File Server</text>
</g>
<!-- Storage Helper&#45;&gt;File Server -->
<g id="edge2" class="edge"><title>Storage Helper&#45;&gt;File Server</title>
<path fill="none" stroke="black" d="M121.091,-51.0478C141.286,-53.9296 164.026,-57.1745 184.164,-60.0481"/>
<polygon fill="black" stroke="black" points="183.729,-63.5214 194.123,-61.4693 184.718,-56.5916 183.729,-63.5214"/>
</g>
<!-- App -->
<g id="node5" class="node"><title>App</title>
<ellipse fill="none" stroke="black" cx="386.236" cy="-18" rx="27" ry="18"/>
<text text-anchor="middle" x="386.236" y="-14.3" font-family="Times,serif" font-size="14.00">App</text>
</g>
<!-- Storage Helper&#45;&gt;App -->
<g id="edge4" class="edge"><title>Storage Helper&#45;&gt;App</title>
<path fill="none" stroke="black" stroke-dasharray="1,5" d="M125.363,-38.2683C191.383,-33.1191 294.763,-25.0562 349.096,-20.8187"/>
<polygon fill="black" stroke="black" points="349.585,-24.2912 359.282,-20.0242 349.041,-17.3124 349.585,-24.2912"/>
</g>
<!-- Private Keys -->
<g id="node2" class="node"><title>Private Keys</title>
<polygon fill="none" stroke="black" points="100.694,-115 20.6943,-115 20.6943,-79 106.694,-79 106.694,-109 100.694,-115"/>
<polyline fill="none" stroke="black" points="100.694,-115 100.694,-109 "/>
<polyline fill="none" stroke="black" points="106.694,-109 100.694,-109 "/>
<text text-anchor="middle" x="63.6943" y="-93.3" font-family="Times,serif" font-size="14.00">Private Keys</text>
</g>
<!-- Private Keys&#45;&gt;Storage Helper -->
<g id="edge1" class="edge"><title>Private Keys&#45;&gt;Storage Helper</title>
<path fill="none" stroke="black" stroke-dasharray="1,5" d="M63.6943,-78.7902C63.6943,-76.3082 63.6943,-73.8262 63.6943,-71.3443"/>
<polygon fill="black" stroke="black" points="67.1944,-71.1406 63.6943,-61.1406 60.1944,-71.1407 67.1944,-71.1406"/>
</g>
<!-- Portal -->
<g id="node4" class="node"><title>Portal</title>
<ellipse fill="none" stroke="black" cx="386.236" cy="-72" rx="31.6951" ry="18"/>
<text text-anchor="middle" x="386.236" y="-68.3" font-family="Times,serif" font-size="14.00">Portal</text>
</g>
<!-- File Server&#45;&gt;Portal -->
<g id="edge3" class="edge"><title>File Server&#45;&gt;Portal</title>
<path fill="none" stroke="red" d="M290.82,-69.3654C307.985,-69.8444 327.092,-70.3775 343.603,-70.8383"/>
<polygon fill="red" stroke="red" points="343.937,-74.3489 354.031,-71.1292 344.132,-67.3516 343.937,-74.3489"/>
</g>
<!-- legend -->
<g id="node6" class="node"><title>legend</title>
<text text-anchor="start" x="177.889" y="-138.8" font-family="Times,serif" font-size="14.00">Portal API Calls</text>
<polygon fill="RED" stroke="none" points="281.889,-131 281.889,-154 316.889,-154 316.889,-131 281.889,-131"/>
<text text-anchor="start" x="169.889" y="-113.8" font-family="Times,serif" font-size="14.00">Filesystem Mounts</text>
<text text-anchor="start" x="285.889" y="-113.8" font-family="Times,serif" font-size="14.00">路 路 路 路</text>
</g>
</g>
</svg>
