<?xml version="1.0" encoding="UTF-8" standalone="no"?>
<!DOCTYPE svg PUBLIC "-//W3C//DTD SVG 1.1//EN"
 "http://www.w3.org/Graphics/SVG/1.1/DTD/svg11.dtd">
<!-- Generated by graphviz version 2.38.0 (20140413.2041)
 -->
<!-- Title: G Pages: 1 -->
<svg width="425pt" height="168pt"
 viewBox="0.00 0.00 424.78 168.00" xmlns="http://www.w3.org/2000/svg" xmlns:xlink="http://www.w3.org/1999/xlink">
<g id="graph0" class="graph" transform="scale(1 1) rotate(0) translate(4 164)">
<title>G</title>
<polygon fill="white" stroke="none" points="-4,4 -4,-164 420.783,-164 420.783,4 -4,4"/>
<!-- Upload Helper -->
<g id="node1" class="node"><title>Upload Helper</title>
<ellipse fill="black" stroke="black" cx="254.044" cy="-45" rx="63.0888" ry="18"/>
<text text-anchor="middle" x="254.044" y="-41.3" font-family="Times,serif" font-size="14.00" fill="white">Upload Helper</text>
</g>
<!-- Portal -->
<g id="node5" class="node"><title>Portal</title>
<ellipse fill="none" stroke="black" cx="384.936" cy="-72" rx="31.6951" ry="18"/>
<text text-anchor="middle" x="384.936" y="-68.3" font-family="Times,serif" font-size="14.00">Portal</text>
</g>
<!-- Upload Helper&#45;&gt;Portal -->
<g id="edge4" class="edge"><title>Upload Helper&#45;&gt;Portal</title>
<path fill="none" stroke="red" d="M305.246,-55.5162C318.389,-58.2694 332.364,-61.1968 344.833,-63.8089"/>
<polygon fill="red" stroke="red" points="344.397,-67.2933 354.902,-65.9181 345.832,-60.4421 344.397,-67.2933"/>
</g>
<!-- Private Keys -->
<g id="node2" class="node"><title>Private Keys</title>
<polygon fill="none" stroke="black" points="114.5,-90 34.5,-90 34.5,-54 120.5,-54 120.5,-84 114.5,-90"/>
<polyline fill="none" stroke="black" points="114.5,-90 114.5,-84 "/>
<polyline fill="none" stroke="black" points="120.5,-84 114.5,-84 "/>
<text text-anchor="middle" x="77.5" y="-68.3" font-family="Times,serif" font-size="14.00">Private Keys</text>
</g>
<!-- Private Keys&#45;&gt;Upload Helper -->
<g id="edge1" class="edge"><title>Private Keys&#45;&gt;Upload Helper</title>
<path fill="none" stroke="black" stroke-dasharray="1,5" d="M120.752,-65.4641C140.963,-62.3377 165.61,-58.5251 188.128,-55.0419"/>
<polygon fill="black" stroke="black" points="188.953,-58.456 198.3,-53.4683 187.883,-51.5382 188.953,-58.456"/>
</g>
<!-- Saved Image -->
<g id="node3" class="node"><title>Saved Image</title>
<polygon fill="none" stroke="black" points="115.5,-36 33.5,-36 33.5,-0 121.5,-0 121.5,-30 115.5,-36"/>
<polyline fill="none" stroke="black" points="115.5,-36 115.5,-30 "/>
<polyline fill="none" stroke="black" points="121.5,-30 115.5,-30 "/>
<text text-anchor="middle" x="77.5" y="-14.3" font-family="Times,serif" font-size="14.00">Saved Image</text>
</g>
<!-- Saved Image&#45;&gt;Upload Helper -->
<g id="edge2" class="edge"><title>Saved Image&#45;&gt;Upload Helper</title>
<path fill="none" stroke="black" stroke-dasharray="1,5" d="M121.646,-24.6742C141.694,-27.7753 165.957,-31.5286 188.15,-34.9616"/>
<polygon fill="black" stroke="black" points="187.761,-38.443 198.179,-36.5129 188.831,-31.5252 187.761,-38.443"/>
</g>
<!-- Image Server -->
<g id="node4" class="node"><title>Image Server</title>
<ellipse fill="none" stroke="black" cx="254.044" cy="-99" rx="58.4896" ry="18"/>
<text text-anchor="middle" x="254.044" y="-95.3" font-family="Times,serif" font-size="14.00">Image Server</text>
</g>
<!-- Image Server&#45;&gt;Upload Helper -->
<g id="edge3" class="edge"><title>Image Server&#45;&gt;Upload Helper</title>
<path fill="none" stroke="black" d="M254.044,-70.5865C254.044,-68.1046 254.044,-65.6226 254.044,-63.1406"/>
<polygon fill="black" stroke="black" points="250.545,-70.7901 254.044,-80.7902 257.545,-70.7902 250.545,-70.7901"/>
</g>
<!-- Image Server&#45;&gt;Portal -->
<g id="edge5" class="edge"><title>Image Server&#45;&gt;Portal</title>
<path fill="none" stroke="red" d="M303.039,-88.9462C316.706,-86.0832 331.431,-82.9986 344.524,-80.2559"/>
<polygon fill="red" stroke="red" points="345.553,-83.6164 354.623,-78.1404 344.118,-76.7651 345.553,-83.6164"/>
</g>
<!-- legend -->
<g id="node6" class="node"><title>legend</title>
<text text-anchor="start" x="14.5" y="-142.8" font-family="Times,serif" font-size="14.00">Portal API Calls</text>
<polygon fill="RED" stroke="none" points="118.5,-135 118.5,-158 153.5,-158 153.5,-135 118.5,-135"/>
<text text-anchor="start" x="6.5" y="-117.8" font-family="Times,serif" font-size="14.00">Filesystem Mounts</text>
<text text-anchor="start" x="122.5" y="-117.8" font-family="Times,serif" font-size="14.00">路 路 路 路</text>
</g>
</g>
</svg>
