<?xml version="1.0" encoding="UTF-8" standalone="no"?>
<!DOCTYPE svg PUBLIC "-//W3C//DTD SVG 1.1//EN"
 "http://www.w3.org/Graphics/SVG/1.1/DTD/svg11.dtd">
<!-- Generated by graphviz version 2.38.0 (20140413.2041)
 -->
<!-- Title: G Pages: 1 -->
<svg width="763pt" height="204pt"
 viewBox="0.00 0.00 763.45 204.00" xmlns="http://www.w3.org/2000/svg" xmlns:xlink="http://www.w3.org/1999/xlink">
<g id="graph0" class="graph" transform="scale(1 1) rotate(0) translate(4 200)">
<title>G</title>
<polygon fill="white" stroke="none" points="-4,4 -4,-200 759.453,-200 759.453,4 -4,4"/>
<!-- Client\nBrowser -->
<g id="node1" class="node"><title>Client\nBrowser</title>
<polygon fill="none" stroke="black" points="108.571,-134.33 54.19,-157.428 -0.190655,-134.33 -0.139898,-96.9563 108.52,-96.9563 108.571,-134.33"/>
<text text-anchor="middle" x="54.19" y="-127.8" font-family="Times,serif" font-size="14.00">Client</text>
<text text-anchor="middle" x="54.19" y="-112.8" font-family="Times,serif" font-size="14.00">Browser</text>
</g>
<!-- GitHub -->
<g id="node2" class="node"><title>GitHub</title>
<polygon fill="none" stroke="black" points="453.476,-196 396.476,-196 396.476,-160 453.476,-160 453.476,-196"/>
<text text-anchor="middle" x="424.976" y="-174.3" font-family="Times,serif" font-size="14.00">GitHub</text>
</g>
<!-- Client\nBrowser&#45;&gt;GitHub -->
<g id="edge6" class="edge"><title>Client\nBrowser&#45;&gt;GitHub</title>
<path fill="none" stroke="blue" d="M108.465,-132.484C120.286,-134.332 132.755,-136.256 144.38,-138 230.758,-150.957 332.295,-165.249 386.078,-172.745"/>
<polygon fill="blue" stroke="blue" points="385.792,-176.238 396.179,-174.151 386.757,-169.305 385.792,-176.238"/>
</g>
<!-- Portal -->
<g id="node4" class="node"><title>Portal</title>
<ellipse fill="none" stroke="black" cx="424.976" cy="-124" rx="31.6951" ry="18"/>
<text text-anchor="middle" x="424.976" y="-120.3" font-family="Times,serif" font-size="14.00">Portal</text>
</g>
<!-- Client\nBrowser&#45;&gt;Portal -->
<g id="edge2" class="edge"><title>Client\nBrowser&#45;&gt;Portal</title>
<path fill="none" stroke="blue" d="M108.421,-124C182.642,-124 315.647,-124 382.793,-124"/>
<polygon fill="blue" stroke="blue" points="382.985,-127.5 392.985,-124 382.985,-120.5 382.985,-127.5"/>
</g>
<!-- Routing\nServer -->
<g id="node7" class="node"><title>Routing\nServer</title>
<ellipse fill="none" stroke="black" cx="186.806" cy="-65" rx="42.3529" ry="26.7407"/>
<text text-anchor="middle" x="186.806" y="-68.8" font-family="Times,serif" font-size="14.00">Routing</text>
<text text-anchor="middle" x="186.806" y="-53.8" font-family="Times,serif" font-size="14.00">Server</text>
</g>
<!-- Client\nBrowser&#45;&gt;Routing\nServer -->
<g id="edge5" class="edge"><title>Client\nBrowser&#45;&gt;Routing\nServer</title>
<path fill="none" stroke="blue" d="M108.694,-99.8322C119.919,-94.7618 131.625,-89.474 142.426,-84.5952"/>
<polygon fill="blue" stroke="blue" points="143.977,-87.735 151.65,-80.4287 141.096,-81.3556 143.977,-87.735"/>
</g>
<!-- GitHub&#45;&gt;Portal -->
<g id="edge11" class="edge"><title>GitHub&#45;&gt;Portal</title>
<path fill="none" stroke="red" d="M424.976,-149.587C424.976,-147.105 424.976,-144.623 424.976,-142.141"/>
<polygon fill="red" stroke="red" points="421.477,-149.79 424.976,-159.79 428.477,-149.79 421.477,-149.79"/>
</g>
<!-- Auth\nHelper -->
<g id="node3" class="node"><title>Auth\nHelper</title>
<ellipse fill="black" stroke="black" cx="424.976" cy="-61" rx="37.4533" ry="26.7407"/>
<text text-anchor="middle" x="424.976" y="-64.8" font-family="Times,serif" font-size="14.00" fill="white">Auth</text>
<text text-anchor="middle" x="424.976" y="-49.8" font-family="Times,serif" font-size="14.00" fill="white">Helper</text>
</g>
<!-- Private\nKeys -->
<g id="node5" class="node"><title>Private\nKeys</title>
<polygon fill="none" stroke="black" points="552.453,-84 503.453,-84 503.453,-46 558.453,-46 558.453,-78 552.453,-84"/>
<polyline fill="none" stroke="black" points="552.453,-84 552.453,-78 "/>
<polyline fill="none" stroke="black" points="558.453,-78 552.453,-78 "/>
<text text-anchor="middle" x="530.953" y="-68.8" font-family="Times,serif" font-size="14.00">Private</text>
<text text-anchor="middle" x="530.953" y="-53.8" font-family="Times,serif" font-size="14.00">Keys</text>
</g>
<!-- Auth\nHelper&#45;&gt;Private\nKeys -->
<g id="edge3" class="edge"><title>Auth\nHelper&#45;&gt;Private\nKeys</title>
<path fill="none" stroke="black" stroke-dasharray="1,5" d="M472.939,-62.8066C483.398,-63.209 494.13,-63.6219 503.422,-63.9794"/>
<polygon fill="black" stroke="black" points="472.762,-59.2973 462.635,-62.4103 472.493,-66.2922 472.762,-59.2973"/>
</g>
<!-- App -->
<g id="node9" class="node"><title>App</title>
<ellipse fill="none" stroke="black" cx="677.453" cy="-18" rx="27" ry="18"/>
<text text-anchor="middle" x="677.453" y="-14.3" font-family="Times,serif" font-size="14.00">App</text>
</g>
<!-- Auth\nHelper&#45;&gt;App -->
<g id="edge8" class="edge"><title>Auth\nHelper&#45;&gt;App</title>
<path fill="none" stroke="blue" d="M458.398,-48.6225C470.771,-44.3357 485.109,-39.8868 498.453,-37 546.835,-26.5331 603.917,-21.7358 640.145,-19.6048"/>
<polygon fill="blue" stroke="blue" points="640.443,-23.0938 650.235,-19.0488 640.057,-16.1044 640.443,-23.0938"/>
</g>
<!-- Portal&#45;&gt;Auth\nHelper -->
<g id="edge1" class="edge"><title>Portal&#45;&gt;Auth\nHelper</title>
<path fill="none" stroke="red" d="M424.976,-95.5308C424.976,-93.044 424.976,-90.5571 424.976,-88.0703"/>
<polygon fill="red" stroke="red" points="421.477,-95.7544 424.976,-105.754 428.477,-95.7545 421.477,-95.7544"/>
</g>
<!-- GitHub\nAPI Key -->
<g id="node6" class="node"><title>GitHub\nAPI Key</title>
<polygon fill="none" stroke="black" points="557.453,-143 498.453,-143 498.453,-105 563.453,-105 563.453,-137 557.453,-143"/>
<polyline fill="none" stroke="black" points="557.453,-143 557.453,-137 "/>
<polyline fill="none" stroke="black" points="563.453,-137 557.453,-137 "/>
<text text-anchor="middle" x="530.953" y="-127.8" font-family="Times,serif" font-size="14.00">GitHub</text>
<text text-anchor="middle" x="530.953" y="-112.8" font-family="Times,serif" font-size="14.00">API Key</text>
</g>
<!-- Portal&#45;&gt;GitHub\nAPI Key -->
<g id="edge4" class="edge"><title>Portal&#45;&gt;GitHub\nAPI Key</title>
<path fill="none" stroke="black" stroke-dasharray="1,5" d="M467.013,-124C477.405,-124 488.407,-124 498.257,-124"/>
<polygon fill="black" stroke="black" points="466.891,-120.5 456.891,-124 466.891,-127.5 466.891,-120.5"/>
</g>
<!-- Listener\nHelper -->
<g id="node8" class="node"><title>Listener\nHelper</title>
<ellipse fill="none" stroke="black" cx="308.366" cy="-65" rx="43.2674" ry="26.7407"/>
<text text-anchor="middle" x="308.366" y="-68.8" font-family="Times,serif" font-size="14.00">Listener</text>
<text text-anchor="middle" x="308.366" y="-53.8" font-family="Times,serif" font-size="14.00">Helper</text>
</g>
<!-- Routing\nServer&#45;&gt;Listener\nHelper -->
<g id="edge9" class="edge"><title>Routing\nServer&#45;&gt;Listener\nHelper</title>
<path fill="none" stroke="blue" stroke-dasharray="5,2" d="M228.284,-58.573C237.144,-58.2666 246.637,-58.1782 255.862,-58.3078"/>
<polygon fill="blue" stroke="blue" points="256.037,-61.8128 266.116,-58.5469 256.2,-54.8147 256.037,-61.8128"/>
</g>
<!-- Listener\nHelper&#45;&gt;Auth\nHelper -->
<g id="edge7" class="edge"><title>Listener\nHelper&#45;&gt;Auth\nHelper</title>
<path fill="none" stroke="blue" d="M351.717,-63.5219C360.059,-63.2308 368.855,-62.9238 377.328,-62.6281"/>
<polygon fill="blue" stroke="blue" points="377.58,-66.1215 387.452,-62.2747 377.336,-59.1258 377.58,-66.1215"/>
</g>
<!-- Listener\nHelper&#45;&gt;Routing\nServer -->
<g id="edge10" class="edge"><title>Listener\nHelper&#45;&gt;Routing\nServer</title>
<path fill="none" stroke="black" d="M266.116,-71.4531C257.22,-71.7469 247.717,-71.8227 238.508,-71.6803"/>
<polygon fill="black" stroke="black" points="238.368,-68.1759 228.284,-71.427 238.194,-75.1737 238.368,-68.1759"/>
</g>
<!-- legend -->
<g id="node10" class="node"><title>legend</title>
<text text-anchor="start" x="620.953" y="-138.8" font-family="Times,serif" font-size="14.00">Client Traffic</text>
<polygon fill="BLUE" stroke="none" points="717.453,-131 717.453,-154 753.453,-154 753.453,-131 717.453,-131"/>
<text text-anchor="start" x="631.453" y="-113.8" font-family="Times,serif" font-size="14.00">API Calls</text>
<polygon fill="RED" stroke="none" points="717.453,-106 717.453,-129 753.453,-129 753.453,-106 717.453,-106"/>
<text text-anchor="start" x="611.953" y="-88.8" font-family="Times,serif" font-size="14.00">Tunneled Traffic</text>
<text text-anchor="start" x="721.453" y="-88.8" font-family="Times,serif" font-size="14.00">– – –</text>
<text text-anchor="start" x="605.453" y="-63.8" font-family="Times,serif" font-size="14.00">Filesystem Mounts</text>
<text text-anchor="start" x="721.953" y="-63.8" font-family="Times,serif" font-size="14.00">· · · ·</text>
</g>
</g>
</svg>
