<?xml version="1.0" encoding="UTF-8" standalone="no"?>
<!DOCTYPE svg PUBLIC "-//W3C//DTD SVG 1.1//EN"
 "http://www.w3.org/Graphics/SVG/1.1/DTD/svg11.dtd">
<!-- Generated by graphviz version 2.38.0 (20140413.2041)
 -->
<!-- Title: G Pages: 1 -->
<svg width="514pt" height="153pt"
 viewBox="0.00 0.00 513.74 153.00" xmlns="http://www.w3.org/2000/svg" xmlns:xlink="http://www.w3.org/1999/xlink">
<g id="graph0" class="graph" transform="scale(1 1) rotate(0) translate(4 149)">
<title>G</title>
<polygon fill="white" stroke="none" points="-4,4 -4,-149 509.745,-149 509.745,4 -4,4"/>
<g id="clust1" class="cluster"><title>cluster_0</title>
<polygon fill="none" stroke="black" points="187.068,-8 187.068,-137 331.756,-137 331.756,-8 187.068,-8"/>
<text text-anchor="middle" x="259.412" y="-121.8" font-family="Times,serif" font-size="14.00">Public</text>
</g>
<g id="clust2" class="cluster"><title>cluster_1</title>
<polygon fill="none" stroke="black" points="351.756,-8 351.756,-137 497.745,-137 497.745,-8 351.756,-8"/>
<text text-anchor="middle" x="424.751" y="-121.8" font-family="Times,serif" font-size="14.00">Private</text>
</g>
<!-- Client Browser -->
<g id="node1" class="node"><title>Client Browser</title>
<polygon fill="none" stroke="black" points="159.102,-66.5623 79.5339,-79 -0.0339317,-66.5623 0.0403354,-46.4377 159.027,-46.4377 159.102,-66.5623"/>
<text text-anchor="middle" x="79.5339" y="-57.3" font-family="Times,serif" font-size="14.00">Client Browser</text>
</g>
<!-- Portal -->
<g id="node2" class="node"><title>Portal</title>
<ellipse fill="none" stroke="black" cx="259.412" cy="-88" rx="31.6951" ry="18"/>
<text text-anchor="middle" x="259.412" y="-84.3" font-family="Times,serif" font-size="14.00">Portal</text>
</g>
<!-- Client Browser&#45;&gt;Portal -->
<g id="edge1" class="edge"><title>Client Browser&#45;&gt;Portal</title>
<path fill="none" stroke="blue" d="M138.778,-69.8408C164.903,-73.8063 195.056,-78.3832 218.554,-81.95"/>
<polygon fill="blue" stroke="blue" points="218.102,-85.4214 228.514,-83.4618 219.152,-78.5006 218.102,-85.4214"/>
</g>
<!-- Routing Server -->
<g id="node3" class="node"><title>Routing Server</title>
<ellipse fill="none" stroke="black" cx="259.412" cy="-34" rx="64.189" ry="18"/>
<text text-anchor="middle" x="259.412" y="-30.3" font-family="Times,serif" font-size="14.00">Routing Server</text>
</g>
<!-- Client Browser&#45;&gt;Routing Server -->
<g id="edge2" class="edge"><title>Client Browser&#45;&gt;Routing Server</title>
<path fill="none" stroke="blue" d="M159.072,-49.0788C170.145,-47.3981 181.436,-45.6842 192.246,-44.0434"/>
<polygon fill="blue" stroke="blue" points="193.078,-47.4572 202.439,-42.4961 192.027,-40.5365 193.078,-47.4572"/>
</g>
<!-- Scheduler -->
<g id="node4" class="node"><title>Scheduler</title>
<ellipse fill="none" stroke="black" cx="424.751" cy="-88" rx="46.2923" ry="18"/>
<text text-anchor="middle" x="424.751" y="-84.3" font-family="Times,serif" font-size="14.00">Scheduler</text>
</g>
<!-- Portal&#45;&gt;Scheduler -->
<g id="edge7" class="edge"><title>Portal&#45;&gt;Scheduler</title>
<path fill="none" stroke="red" stroke-dasharray="5,2" d="M289.991,-93.3401C312.572,-94.7776 344.271,-95.1159 371.143,-94.3549"/>
<polygon fill="red" stroke="red" points="371.302,-97.8515 381.176,-94.0094 371.062,-90.8557 371.302,-97.8515"/>
</g>
<!-- Compute Node -->
<g id="node5" class="node"><title>Compute Node</title>
<ellipse fill="none" stroke="black" cx="424.751" cy="-34" rx="64.9885" ry="18"/>
<text text-anchor="middle" x="424.751" y="-30.3" font-family="Times,serif" font-size="14.00">Compute Node</text>
</g>
<!-- Portal&#45;&gt;Compute Node -->
<!-- Routing Server&#45;&gt;Scheduler -->
<!-- Routing Server&#45;&gt;Compute Node -->
<g id="edge8" class="edge"><title>Routing Server&#45;&gt;Compute Node</title>
<path fill="none" stroke="blue" stroke-dasharray="5,2" d="M319.843,-40.5225C330.877,-40.7535 342.498,-40.8086 353.812,-40.6877"/>
<polygon fill="blue" stroke="blue" points="354.146,-44.183 364.09,-40.5273 354.037,-37.1839 354.146,-44.183"/>
</g>
<!-- Scheduler&#45;&gt;Portal -->
<g id="edge5" class="edge"><title>Scheduler&#45;&gt;Portal</title>
<path fill="none" stroke="red" d="M381.176,-81.9906C356.101,-80.9625 324.591,-81.0048 300.046,-82.1175"/>
<polygon fill="red" stroke="red" points="299.788,-78.6262 289.991,-82.6599 300.166,-85.616 299.788,-78.6262"/>
</g>
<!-- Compute Node&#45;&gt;Portal -->
<g id="edge3" class="edge"><title>Compute Node&#45;&gt;Portal</title>
<path fill="none" stroke="red" d="M372.336,-44.6777C346.238,-52.5306 315.34,-63.0188 292.627,-71.8492"/>
<polygon fill="red" stroke="red" points="291.111,-68.6858 283.124,-75.6466 293.708,-75.1861 291.111,-68.6858"/>
</g>
<!-- Compute Node&#45;&gt;Routing Server -->
<g id="edge4" class="edge"><title>Compute Node&#45;&gt;Routing Server</title>
<path fill="none" stroke="black" d="M364.09,-27.4727C353.048,-27.2441 341.425,-27.1915 330.116,-27.3148"/>
<polygon fill="black" stroke="black" points="329.786,-23.8195 319.843,-27.4775 329.897,-30.8186 329.786,-23.8195"/>
</g>
<!-- Compute Node&#45;&gt;Scheduler -->
<g id="edge6" class="edge"><title>Compute Node&#45;&gt;Scheduler</title>
<path fill="none" stroke="black" d="M424.751,-62.3443C424.751,-64.8262 424.751,-67.3082 424.751,-69.7902"/>
<polygon fill="black" stroke="black" points="428.251,-62.1406 424.751,-52.1406 421.251,-62.1407 428.251,-62.1406"/>
</g>
<!-- legend -->
<g id="node6" class="node"><title>legend</title>
<text text-anchor="start" x="38.0339" y="-127.8" font-family="Times,serif" font-size="14.00">Client Traffic</text>
<polygon fill="BLUE" stroke="none" points="124.534,-120 124.534,-143 132.534,-143 132.534,-120 124.534,-120"/>
<text text-anchor="start" x="30.5339" y="-104.8" font-family="Times,serif" font-size="14.00">Portal API Calls</text>
<polygon fill="RED" stroke="none" points="124.534,-97 124.534,-120 132.534,-120 132.534,-97 124.534,-97"/>
</g>
</g>
</svg>
