<?xml version="1.0" encoding="UTF-8" standalone="no"?>
<!DOCTYPE svg PUBLIC "-//W3C//DTD SVG 1.1//EN"
 "http://www.w3.org/Graphics/SVG/1.1/DTD/svg11.dtd">
<!-- Generated by graphviz version 2.38.0 (20140413.2041)
 -->
<!-- Title: G Pages: 1 -->
<svg width="400pt" height="122pt"
 viewBox="0.00 0.00 399.77 122.08" xmlns="http://www.w3.org/2000/svg" xmlns:xlink="http://www.w3.org/1999/xlink">
<g id="graph0" class="graph" transform="scale(1 1) rotate(0) translate(4 118.078)">
<title>G</title>
<polygon fill="white" stroke="none" points="-4,4 -4,-118.078 395.772,-118.078 395.772,4 -4,4"/>
<!-- Compute Node -->
<g id="node1" class="node"><title>Compute Node</title>
<ellipse fill="none" stroke="black" cx="164.689" cy="-41.0785" rx="64.9885" ry="18"/>
<text text-anchor="middle" x="164.689" y="-37.3785" font-family="Times,serif" font-size="14.00">Compute Node</text>
</g>
<!-- Image Server -->
<g id="node2" class="node"><title>Image Server</title>
<ellipse fill="none" stroke="black" cx="328.727" cy="-96.0785" rx="58.4896" ry="18"/>
<text text-anchor="middle" x="328.727" y="-92.3785" font-family="Times,serif" font-size="14.00">Image Server</text>
</g>
<!-- Compute Node&#45;&gt;Image Server -->
<g id="edge1" class="edge"><title>Compute Node&#45;&gt;Image Server</title>
<path fill="none" stroke="black" d="M206.578,-54.9573C228.645,-62.4476 256.027,-71.7416 279.173,-79.5979"/>
<polygon fill="black" stroke="black" points="278.211,-82.9675 288.805,-82.8674 280.461,-76.3389 278.211,-82.9675"/>
</g>
<!-- Storage Server -->
<g id="node3" class="node"><title>Storage Server</title>
<ellipse fill="none" stroke="black" cx="328.727" cy="-18.0785" rx="63.0888" ry="18"/>
<text text-anchor="middle" x="328.727" y="-14.3785" font-family="Times,serif" font-size="14.00">Storage Server</text>
</g>
<!-- Compute Node&#45;&gt;Storage Server -->
<g id="edge2" class="edge"><title>Compute Node&#45;&gt;Storage Server</title>
<path fill="none" stroke="black" d="M222.817,-32.9695C235.399,-31.1836 248.825,-29.2779 261.725,-27.4469"/>
<polygon fill="black" stroke="black" points="262.523,-30.8688 271.932,-25.9982 261.539,-23.9383 262.523,-30.8688"/>
</g>
<!-- Portal -->
<g id="node4" class="node"><title>Portal</title>
<ellipse fill="none" stroke="black" cx="31.8472" cy="-68.0785" rx="31.6951" ry="18"/>
<text text-anchor="middle" x="31.8472" y="-64.3785" font-family="Times,serif" font-size="14.00">Portal</text>
</g>
<!-- Compute Node&#45;&gt;Portal -->
<g id="edge6" class="edge"><title>Compute Node&#45;&gt;Portal</title>
<path fill="none" stroke="red" d="M112.082,-51.7278C98.7514,-54.4787 84.6186,-57.3951 72.0371,-59.9914"/>
<polygon fill="red" stroke="red" points="70.9714,-56.6375 61.8851,-62.0863 72.3861,-63.493 70.9714,-56.6375"/>
</g>
<!-- Image Server&#45;&gt;Portal -->
<g id="edge4" class="edge"><title>Image Server&#45;&gt;Portal</title>
<path fill="none" stroke="red" d="M270.194,-96.0957C211.458,-92.4339 121.93,-83.6813 71.2813,-76.4537"/>
<polygon fill="red" stroke="red" points="71.7953,-72.9917 61.3894,-74.9837 70.7663,-79.9157 71.7953,-72.9917"/>
</g>
<!-- Storage Server&#45;&gt;Portal -->
<g id="edge5" class="edge"><title>Storage Server&#45;&gt;Portal</title>
<path fill="none" stroke="red" d="M277.639,-7.37688C230.331,0.478784 158.119,6.57152 99.6943,-14.0785 82.2709,-20.2368 66.0583,-33.0779 53.9639,-44.6931"/>
<polygon fill="red" stroke="red" points="51.204,-42.5051 46.6395,-52.0663 56.1702,-47.4384 51.204,-42.5051"/>
</g>
<!-- Portal&#45;&gt;Image Server -->
<g id="edge3" class="edge"><title>Portal&#45;&gt;Image Server</title>
<path fill="none" stroke="black" d="M63.8472,-66.6831C112.522,-68.5425 207.683,-77.1897 269.436,-85.0387"/>
<polygon fill="black" stroke="black" points="269.057,-88.5188 279.425,-86.3409 269.961,-81.5775 269.057,-88.5188"/>
</g>
</g>
</svg>
