<?xml version="1.0" encoding="UTF-8" standalone="no"?>
<!DOCTYPE svg PUBLIC "-//W3C//DTD SVG 1.1//EN"
 "http://www.w3.org/Graphics/SVG/1.1/DTD/svg11.dtd">
<!-- Generated by graphviz version 2.38.0 (20140413.2041)
 -->
<!-- Title: G Pages: 1 -->
<svg width="460pt" height="148pt"
 viewBox="0.00 0.00 460.08 148.00" xmlns="http://www.w3.org/2000/svg" xmlns:xlink="http://www.w3.org/1999/xlink">
<g id="graph0" class="graph" transform="scale(1 1) rotate(0) translate(4 144)">
<title>G</title>
<polygon fill="white" stroke="none" points="-4,4 -4,-144 456.077,-144 456.077,4 -4,4"/>
<!-- Compute Node -->
<g id="node1" class="node"><title>Compute Node</title>
<ellipse fill="none" stroke="black" cx="224.994" cy="-41" rx="64.9885" ry="18"/>
<text text-anchor="middle" x="224.994" y="-37.3" font-family="Times,serif" font-size="14.00">Compute Node</text>
</g>
<!-- Image Server -->
<g id="node2" class="node"><title>Image Server</title>
<ellipse fill="none" stroke="black" cx="389.033" cy="-96" rx="58.4896" ry="18"/>
<text text-anchor="middle" x="389.033" y="-92.3" font-family="Times,serif" font-size="14.00">Image Server</text>
</g>
<!-- Compute Node&#45;&gt;Image Server -->
<g id="edge1" class="edge"><title>Compute Node&#45;&gt;Image Server</title>
<path fill="none" stroke="black" d="M266.883,-54.8788C288.951,-62.3691 316.333,-71.6631 339.479,-79.5194"/>
<polygon fill="black" stroke="black" points="338.517,-82.889 349.111,-82.789 340.767,-76.2605 338.517,-82.889"/>
</g>
<!-- Storage Server -->
<g id="node3" class="node"><title>Storage Server</title>
<ellipse fill="none" stroke="black" cx="389.033" cy="-18" rx="63.0888" ry="18"/>
<text text-anchor="middle" x="389.033" y="-14.3" font-family="Times,serif" font-size="14.00">Storage Server</text>
</g>
<!-- Compute Node&#45;&gt;Storage Server -->
<g id="edge2" class="edge"><title>Compute Node&#45;&gt;Storage Server</title>
<path fill="none" stroke="black" d="M283.123,-32.8911C295.705,-31.1052 309.131,-29.1994 322.031,-27.3684"/>
<polygon fill="black" stroke="black" points="322.828,-30.7904 332.237,-25.9197 321.845,-23.8598 322.828,-30.7904"/>
</g>
<!-- Portal -->
<g id="node4" class="node"><title>Portal</title>
<ellipse fill="none" stroke="black" cx="62" cy="-68" rx="31.6951" ry="18"/>
<text text-anchor="middle" x="62" y="-64.3" font-family="Times,serif" font-size="14.00">Portal</text>
</g>
<!-- Compute Node&#45;&gt;Portal -->
<g id="edge6" class="edge"><title>Compute Node&#45;&gt;Portal</title>
<path fill="none" stroke="red" d="M168.841,-50.2497C147.171,-53.8839 122.772,-57.9758 102.866,-61.3141"/>
<polygon fill="red" stroke="red" points="102.188,-57.8789 92.9045,-62.9848 103.346,-64.7825 102.188,-57.8789"/>
</g>
<!-- Image Server&#45;&gt;Portal -->
<g id="edge4" class="edge"><title>Image Server&#45;&gt;Portal</title>
<path fill="none" stroke="red" d="M330.25,-96.3275C264.387,-92.8007 158.543,-83.4369 101.84,-75.9133"/>
<polygon fill="red" stroke="red" points="102.23,-72.434 91.8445,-74.5318 101.271,-79.3681 102.23,-72.434"/>
</g>
<!-- Storage Server&#45;&gt;Portal -->
<g id="edge5" class="edge"><title>Storage Server&#45;&gt;Portal</title>
<path fill="none" stroke="red" d="M334.087,-9.01C287.265,-3.09559 218.062,1.07252 160,-14 134.554,-20.6056 108.687,-35.5018 90.0712,-47.9789"/>
<polygon fill="red" stroke="red" points="88.0471,-45.1232 81.8028,-53.6824 92.0217,-50.8854 88.0471,-45.1232"/>
</g>
<!-- Portal&#45;&gt;Image Server -->
<g id="edge3" class="edge"><title>Portal&#45;&gt;Image Server</title>
<path fill="none" stroke="black" d="M93.8713,-66.4969C147.605,-68.1382 259.192,-77.3504 328.432,-85.502"/>
<polygon fill="black" stroke="black" points="328.399,-89.0234 338.746,-86.7478 329.238,-82.0739 328.399,-89.0234"/>
</g>
<!-- legend -->
<g id="node5" class="node"><title>legend</title>
<text text-anchor="start" x="6" y="-117.8" font-family="Times,serif" font-size="14.00">Portal API Calls</text>
<polygon fill="RED" stroke="none" points="102,-110 102,-133 122,-133 122,-110 102,-110"/>
<text text-anchor="start" x="106" y="-117.8" font-family="Times,serif" font-size="14.00"> &#160;&#160;</text>
</g>
</g>
</svg>
