<?xml version="1.0" encoding="UTF-8" standalone="no"?>
<!DOCTYPE svg PUBLIC "-//W3C//DTD SVG 1.1//EN"
 "http://www.w3.org/Graphics/SVG/1.1/DTD/svg11.dtd">
<!-- Generated by graphviz version 2.38.0 (20140413.2041)
 -->
<!-- Title: G Pages: 1 -->
<svg width="858pt" height="354pt"
 viewBox="0.00 0.00 858.00 354.00" xmlns="http://www.w3.org/2000/svg" xmlns:xlink="http://www.w3.org/1999/xlink">
<g id="graph0" class="graph" transform="scale(1 1) rotate(0) translate(4 350)">
<title>G</title>
<polygon fill="white" stroke="none" points="-4,4 -4,-350 854,-350 854,4 -4,4"/>
<g id="clust2" class="cluster"><title>cluster_node</title>
<polygon fill="none" stroke="black" points="8,-8 8,-338 457,-338 457,-8 8,-8"/>
<text text-anchor="middle" x="232.5" y="-322.8" font-family="Times,serif" font-size="14.00">Compute Node</text>
</g>
<g id="clust3" class="cluster"><title>cluster_instance_pod</title>
<polygon fill="none" stroke="black" points="28,-85 28,-307 299,-307 299,-85 28,-85"/>
<text text-anchor="middle" x="163.5" y="-291.8" font-family="Times,serif" font-size="14.00">Container Pod</text>
</g>
<g id="clust4" class="cluster"><title>cluster_upload_pod</title>
<polygon fill="none" stroke="black" points="307,-85 307,-160 449,-160 449,-85 307,-85"/>
<text text-anchor="middle" x="378" y="-144.8" font-family="Times,serif" font-size="14.00">Upload Pod</text>
</g>
<!-- Client Browser -->
<g id="node1" class="node"><title>Client Browser</title>
<polygon fill="none" stroke="black" points="662.568,-263.562 583,-276 503.432,-263.562 503.506,-243.438 662.494,-243.438 662.568,-263.562"/>
<text text-anchor="middle" x="583" y="-254.3" font-family="Times,serif" font-size="14.00">Client Browser</text>
</g>
<!-- Portal -->
<g id="node2" class="node"><title>Portal</title>
<ellipse fill="none" stroke="black" cx="529" cy="-111" rx="31.6951" ry="18"/>
<text text-anchor="middle" x="529" y="-107.3" font-family="Times,serif" font-size="14.00">Portal</text>
</g>
<!-- Client Browser&#45;&gt;Portal -->
<g id="edge1" class="edge"><title>Client Browser&#45;&gt;Portal</title>
<path fill="none" stroke="blue" d="M591.176,-243.356C600.861,-225.282 614.231,-192.797 602,-168 593.495,-150.756 576.848,-137.347 561.596,-127.979"/>
<polygon fill="blue" stroke="blue" points="563.26,-124.898 552.849,-122.932 559.762,-130.961 563.26,-124.898"/>
</g>
<!-- Routing Server -->
<g id="node3" class="node"><title>Routing Server</title>
<ellipse fill="none" stroke="black" cx="529" cy="-186" rx="64.189" ry="18"/>
<text text-anchor="middle" x="529" y="-182.3" font-family="Times,serif" font-size="14.00">Routing Server</text>
</g>
<!-- Client Browser&#45;&gt;Routing Server -->
<g id="edge2" class="edge"><title>Client Browser&#45;&gt;Routing Server</title>
<path fill="none" stroke="blue" d="M572.331,-243.17C565.443,-234.241 556.284,-222.368 548.161,-211.839"/>
<polygon fill="blue" stroke="blue" points="550.812,-209.544 541.932,-203.764 545.269,-213.82 550.812,-209.544"/>
</g>
<!-- Routing Server&#45;&gt;Portal -->
<g id="edge13" class="edge"><title>Routing Server&#45;&gt;Portal</title>
<path fill="none" stroke="RED" d="M529,-167.7C529,-159.245 529,-148.869 529,-139.373"/>
<polygon fill="RED" stroke="RED" points="532.5,-139.176 529,-129.176 525.5,-139.176 532.5,-139.176"/>
</g>
<!-- Listener Helper -->
<g id="node4" class="node"><title>Listener Helper</title>
<ellipse fill="none" stroke="black" cx="225" cy="-258" rx="65.7887" ry="18"/>
<text text-anchor="middle" x="225" y="-254.3" font-family="Times,serif" font-size="14.00">Listener Helper</text>
</g>
<!-- Routing Server&#45;&gt;Listener Helper -->
<g id="edge12" class="edge"><title>Routing Server&#45;&gt;Listener Helper</title>
<path fill="none" stroke="blue" stroke-dasharray="5,2" d="M483.153,-198.754C430.44,-211.356 343.884,-231.299 285.648,-244.267"/>
<polygon fill="blue" stroke="blue" points="284.841,-240.86 275.837,-246.445 286.358,-247.694 284.841,-240.86"/>
</g>
<!-- Listener Helper&#45;&gt;Portal -->
<g id="edge15" class="edge"><title>Listener Helper&#45;&gt;Portal</title>
<path fill="none" stroke="RED" d="M259.903,-242.551C304.863,-224.172 385.61,-191.946 456,-168 467.849,-163.969 472.313,-166.514 483,-160 493.413,-153.653 503.067,-144.369 510.813,-135.653"/>
<polygon fill="RED" stroke="RED" points="513.577,-137.806 517.359,-127.909 508.231,-133.287 513.577,-137.806"/>
</g>
<!-- Listener Helper&#45;&gt;Routing Server -->
<g id="edge16" class="edge"><title>Listener Helper&#45;&gt;Routing Server</title>
<path fill="none" stroke="black" d="M271.352,-245.125C324.351,-232.459 411.084,-212.48 469.14,-199.558"/>
<polygon fill="black" stroke="black" points="469.911,-202.972 478.915,-197.389 468.395,-196.138 469.911,-202.972"/>
</g>
<!-- Auth Helper -->
<g id="node5" class="node"><title>Auth Helper</title>
<ellipse fill="none" stroke="black" cx="236" cy="-186" rx="54.6905" ry="18"/>
<text text-anchor="middle" x="236" y="-182.3" font-family="Times,serif" font-size="14.00">Auth Helper</text>
</g>
<!-- Listener Helper&#45;&gt;Auth Helper -->
<g id="edge3" class="edge"><title>Listener Helper&#45;&gt;Auth Helper</title>
<path fill="none" stroke="blue" d="M227.719,-239.697C228.931,-231.983 230.388,-222.712 231.739,-214.112"/>
<polygon fill="blue" stroke="blue" points="235.217,-214.526 233.312,-204.104 228.302,-213.44 235.217,-214.526"/>
</g>
<!-- Private Keys -->
<g id="node9" class="node"><title>Private Keys</title>
<polygon fill="none" stroke="black" points="177,-52 97,-52 97,-16 183,-16 183,-46 177,-52"/>
<polyline fill="none" stroke="black" points="177,-52 177,-46 "/>
<polyline fill="none" stroke="black" points="183,-46 177,-46 "/>
<text text-anchor="middle" x="140" y="-30.3" font-family="Times,serif" font-size="14.00">Private Keys</text>
</g>
<!-- Listener Helper&#45;&gt;Private Keys -->
<g id="edge8" class="edge"><title>Listener Helper&#45;&gt;Private Keys</title>
<path fill="none" stroke="black" stroke-dasharray="1,5" d="M157.22,-247.755C106.41,-239.272 42.996,-224.841 27,-204 -13.9378,-150.663 68.6246,-83.1234 113.553,-52.0539"/>
<polygon fill="black" stroke="black" points="156.765,-251.227 167.197,-249.372 157.886,-244.317 156.765,-251.227"/>
</g>
<!-- Auth Helper&#45;&gt;Portal -->
<g id="edge14" class="edge"><title>Auth Helper&#45;&gt;Portal</title>
<path fill="none" stroke="RED" d="M284.843,-177.756C308.675,-174.415 337.79,-170.619 364,-168 390.373,-165.365 458.985,-171.215 483,-160 494.21,-154.765 504.097,-145.499 511.803,-136.495"/>
<polygon fill="RED" stroke="RED" points="514.743,-138.423 518.243,-128.423 509.271,-134.057 514.743,-138.423"/>
</g>
<!-- App -->
<g id="node6" class="node"><title>App</title>
<ellipse fill="none" stroke="black" cx="236" cy="-111" rx="27" ry="18"/>
<text text-anchor="middle" x="236" y="-107.3" font-family="Times,serif" font-size="14.00">App</text>
</g>
<!-- Auth Helper&#45;&gt;App -->
<g id="edge4" class="edge"><title>Auth Helper&#45;&gt;App</title>
<path fill="none" stroke="blue" d="M236,-167.7C236,-159.245 236,-148.869 236,-139.373"/>
<polygon fill="blue" stroke="blue" points="239.5,-139.176 236,-129.176 232.5,-139.176 239.5,-139.176"/>
</g>
<!-- Auth Helper&#45;&gt;Private Keys -->
<g id="edge7" class="edge"><title>Auth Helper&#45;&gt;Private Keys</title>
<path fill="none" stroke="black" stroke-dasharray="1,5" d="M203.038,-163.284C201.974,-162.218 200.956,-161.122 200,-160 171.743,-126.835 153.45,-78.0809 145.156,-52.3604"/>
<polygon fill="black" stroke="black" points="200.749,-165.932 210.583,-169.876 205.355,-160.661 200.749,-165.932"/>
</g>
<!-- Saved App Image -->
<g id="node10" class="node"><title>Saved App Image</title>
<polygon fill="none" stroke="black" points="323.5,-52 214.5,-52 214.5,-16 329.5,-16 329.5,-46 323.5,-52"/>
<polyline fill="none" stroke="black" points="323.5,-52 323.5,-46 "/>
<polyline fill="none" stroke="black" points="329.5,-46 323.5,-46 "/>
<text text-anchor="middle" x="272" y="-30.3" font-family="Times,serif" font-size="14.00">Saved App Image</text>
</g>
<!-- App&#45;&gt;Saved App Image -->
<g id="edge6" class="edge"><title>App&#45;&gt;Saved App Image</title>
<path fill="none" stroke="black" stroke-dasharray="1,5" d="M243.811,-93.7261C248.386,-84.1962 254.269,-71.9392 259.477,-61.0904"/>
<polygon fill="black" stroke="black" points="262.657,-62.5529 263.829,-52.0231 256.346,-59.5237 262.657,-62.5529"/>
</g>
<!-- Storage Helper -->
<g id="node7" class="node"><title>Storage Helper</title>
<ellipse fill="none" stroke="black" cx="100" cy="-186" rx="63.8893" ry="18"/>
<text text-anchor="middle" x="100" y="-182.3" font-family="Times,serif" font-size="14.00">Storage Helper</text>
</g>
<!-- Storage Helper&#45;&gt;App -->
<g id="edge5" class="edge"><title>Storage Helper&#45;&gt;App</title>
<path fill="none" stroke="black" stroke-dasharray="1,5" d="M147.37,-173.822C175.061,-167.271 204.675,-160.23 205,-160 213.003,-154.34 219.447,-145.898 224.342,-137.665"/>
<polygon fill="black" stroke="black" points="227.554,-139.082 229.212,-128.618 221.39,-135.764 227.554,-139.082"/>
</g>
<!-- Storage Helper&#45;&gt;Private Keys -->
<g id="edge9" class="edge"><title>Storage Helper&#45;&gt;Private Keys</title>
<path fill="none" stroke="black" stroke-dasharray="1,5" d="M107.271,-157.735C115.483,-126.938 128.595,-77.768 135.465,-52.0062"/>
<polygon fill="black" stroke="black" points="103.783,-157.229 104.589,-167.793 110.547,-159.033 103.783,-157.229"/>
</g>
<!-- Storage Server -->
<g id="node11" class="node"><title>Storage Server</title>
<ellipse fill="none" stroke="black" cx="663" cy="-34" rx="63.0888" ry="18"/>
<text text-anchor="middle" x="663" y="-30.3" font-family="Times,serif" font-size="14.00">Storage Server</text>
</g>
<!-- Storage Helper&#45;&gt;Storage Server -->
<g id="edge17" class="edge"><title>Storage Helper&#45;&gt;Storage Server</title>
<path fill="none" stroke="black" d="M144.291,-173.052C153.393,-171.018 162.958,-169.184 172,-168 187.485,-165.973 439.948,-168.576 453,-160 483.742,-139.801 459.89,-108.726 488,-85 523.924,-54.6777 544.824,-70.0057 590,-57 597.083,-54.9607 604.539,-52.7676 611.871,-50.5842"/>
<polygon fill="black" stroke="black" points="613.168,-53.8493 621.744,-47.628 611.16,-47.1434 613.168,-53.8493"/>
</g>
<!-- Upload Helper -->
<g id="node8" class="node"><title>Upload Helper</title>
<ellipse fill="none" stroke="black" cx="378" cy="-111" rx="63.0888" ry="18"/>
<text text-anchor="middle" x="378" y="-107.3" font-family="Times,serif" font-size="14.00">Upload Helper</text>
</g>
<!-- Upload Helper&#45;&gt;Portal -->
<g id="edge20" class="edge"><title>Upload Helper&#45;&gt;Portal</title>
<path fill="none" stroke="RED" d="M441.113,-111C456.415,-111 471.716,-111 487.017,-111"/>
<polygon fill="RED" stroke="RED" points="487.072,-114.5 497.072,-111 487.072,-107.5 487.072,-114.5"/>
</g>
<!-- Upload Helper&#45;&gt;Private Keys -->
<g id="edge10" class="edge"><title>Upload Helper&#45;&gt;Private Keys</title>
<path fill="none" stroke="black" stroke-dasharray="1,5" d="M329.44,-93.4716C320.661,-90.5811 311.574,-87.6525 303,-85 259.725,-71.6123 248.244,-70.4874 205,-57 197.949,-54.8007 190.5,-52.3763 183.261,-49.9648"/>
<polygon fill="black" stroke="black" points="328.584,-96.875 339.177,-96.7022 330.788,-90.2311 328.584,-96.875"/>
</g>
<!-- Upload Helper&#45;&gt;Saved App Image -->
<g id="edge11" class="edge"><title>Upload Helper&#45;&gt;Saved App Image</title>
<path fill="none" stroke="black" stroke-dasharray="1,5" d="M346.935,-88.0203C330.783,-76.592 311.331,-62.8285 296.294,-52.1889"/>
<polygon fill="black" stroke="black" points="345.335,-91.1756 355.52,-94.0944 349.378,-85.4613 345.335,-91.1756"/>
</g>
<!-- Storage Server&#45;&gt;Portal -->
<g id="edge19" class="edge"><title>Storage Server&#45;&gt;Portal</title>
<path fill="none" stroke="RED" d="M635.615,-50.3272C613.593,-62.6534 582.659,-79.967 559.781,-92.7719"/>
<polygon fill="RED" stroke="RED" points="557.844,-89.8448 550.828,-97.783 561.263,-95.9531 557.844,-89.8448"/>
</g>
<!-- Image Server -->
<g id="node12" class="node"><title>Image Server</title>
<ellipse fill="none" stroke="black" cx="523" cy="-34" rx="58.4896" ry="18"/>
<text text-anchor="middle" x="523" y="-30.3" font-family="Times,serif" font-size="14.00">Image Server</text>
</g>
<!-- Image Server&#45;&gt;Portal -->
<g id="edge18" class="edge"><title>Image Server&#45;&gt;Portal</title>
<path fill="none" stroke="RED" d="M524.377,-52.2109C525.103,-61.2888 526.011,-72.6362 526.829,-82.8666"/>
<polygon fill="RED" stroke="RED" points="523.352,-83.2923 527.639,-92.9813 530.33,-82.734 523.352,-83.2923"/>
</g>
<!-- Image Server&#45;&gt;Upload Helper -->
<g id="edge21" class="edge"><title>Image Server&#45;&gt;Upload Helper</title>
<path fill="none" stroke="black" d="M485.067,-54.6206C460.656,-67.2469 429.419,-83.4039 406.994,-95.0029"/>
<polygon fill="black" stroke="black" points="486.782,-57.6742 494.056,-49.9711 483.566,-51.4566 486.782,-57.6742"/>
</g>
<!-- legend -->
<g id="node13" class="node"><title>legend</title>
<text text-anchor="start" x="755.5" y="-41.8" font-family="Times,serif" font-size="14.00">Client Traffic</text>
<polygon fill="BLUE" stroke="none" points="842,-34 842,-57 850,-57 850,-34 842,-34"/>
<text text-anchor="start" x="748" y="-18.8" font-family="Times,serif" font-size="14.00">Portal API Calls</text>
<polygon fill="RED" stroke="none" points="842,-11 842,-34 850,-34 850,-11 842,-11"/>
</g>
</g>
</svg>
