<?xml version="1.0" encoding="UTF-8" standalone="no"?>
<!DOCTYPE svg PUBLIC "-//W3C//DTD SVG 1.1//EN"
 "http://www.w3.org/Graphics/SVG/1.1/DTD/svg11.dtd">
<!-- Generated by graphviz version 2.38.0 (20140413.2041)
 -->
<!-- Title: G Pages: 1 -->
<svg width="845pt" height="382pt"
 viewBox="0.00 0.00 845.00 382.00" xmlns="http://www.w3.org/2000/svg" xmlns:xlink="http://www.w3.org/1999/xlink">
<g id="graph0" class="graph" transform="scale(1 1) rotate(0) translate(4 378)">
<title>G</title>
<polygon fill="white" stroke="none" points="-4,4 -4,-378 841,-378 841,4 -4,4"/>
<g id="clust2" class="cluster"><title>cluster_node</title>
<polygon fill="none" stroke="black" points="8,-8 8,-366 457,-366 457,-8 8,-8"/>
<text text-anchor="middle" x="232.5" y="-350.8" font-family="Times,serif" font-size="14.00">Compute Node</text>
</g>
<g id="clust3" class="cluster"><title>cluster_instance_pod</title>
<polygon fill="none" stroke="black" points="28,-80 28,-335 299,-335 299,-80 28,-80"/>
<text text-anchor="middle" x="163.5" y="-319.8" font-family="Times,serif" font-size="14.00">Container Pod</text>
</g>
<g id="clust4" class="cluster"><title>cluster_upload_pod</title>
<polygon fill="none" stroke="black" points="307,-80 307,-155 449,-155 449,-80 307,-80"/>
<text text-anchor="middle" x="378" y="-139.8" font-family="Times,serif" font-size="14.00">Upload Pod</text>
</g>
<!-- Client Browser -->
<g id="node1" class="node"><title>Client Browser</title>
<polygon fill="none" stroke="black" points="662.568,-291.562 583,-304 503.432,-291.562 503.506,-271.438 662.494,-271.438 662.568,-291.562"/>
<text text-anchor="middle" x="583" y="-282.3" font-family="Times,serif" font-size="14.00">Client Browser</text>
</g>
<!-- Portal -->
<g id="node2" class="node"><title>Portal</title>
<ellipse fill="none" stroke="black" cx="529" cy="-106" rx="31.6951" ry="18"/>
<text text-anchor="middle" x="529" y="-102.3" font-family="Times,serif" font-size="14.00">Portal</text>
</g>
<!-- Client Browser&#45;&gt;Portal -->
<g id="edge1" class="edge"><title>Client Browser&#45;&gt;Portal</title>
<path fill="none" stroke="blue" d="M590.083,-271.399C601.223,-247.996 619.826,-199.142 602,-163 593.495,-145.756 576.848,-132.347 561.596,-122.979"/>
<polygon fill="blue" stroke="blue" points="563.26,-119.898 552.849,-117.932 559.762,-125.961 563.26,-119.898"/>
</g>
<!-- Routing Server -->
<g id="node3" class="node"><title>Routing Server</title>
<ellipse fill="none" stroke="black" cx="529" cy="-181" rx="64.189" ry="18"/>
<text text-anchor="middle" x="529" y="-177.3" font-family="Times,serif" font-size="14.00">Routing Server</text>
</g>
<!-- Client Browser&#45;&gt;Routing Server -->
<g id="edge2" class="edge"><title>Client Browser&#45;&gt;Routing Server</title>
<path fill="none" stroke="blue" d="M575.717,-271.109C567.267,-254.992 553.152,-228.069 542.645,-208.026"/>
<polygon fill="blue" stroke="blue" points="545.704,-206.323 537.961,-199.091 539.504,-209.573 545.704,-206.323"/>
</g>
<!-- Routing Server&#45;&gt;Portal -->
<g id="edge13" class="edge"><title>Routing Server&#45;&gt;Portal</title>
<path fill="none" stroke="RED" d="M529,-162.7C529,-154.245 529,-143.869 529,-134.373"/>
<polygon fill="RED" stroke="RED" points="532.5,-134.176 529,-124.176 525.5,-134.176 532.5,-134.176"/>
</g>
<!-- Listener Helper -->
<g id="node4" class="node"><title>Listener Helper</title>
<ellipse fill="none" stroke="black" cx="225" cy="-286" rx="65.7887" ry="18"/>
<text text-anchor="middle" x="225" y="-282.3" font-family="Times,serif" font-size="14.00">Listener Helper</text>
</g>
<!-- Routing Server&#45;&gt;Listener Helper -->
<g id="edge12" class="edge"><title>Routing Server&#45;&gt;Listener Helper</title>
<path fill="none" stroke="blue" stroke-dasharray="5,2" d="M492.516,-195.988C438.906,-215.002 338.867,-248.926 277.42,-268.953"/>
<polygon fill="blue" stroke="blue" points="275.961,-265.746 267.531,-272.163 278.123,-272.404 275.961,-265.746"/>
</g>
<!-- Listener Helper&#45;&gt;Portal -->
<g id="edge15" class="edge"><title>Listener Helper&#45;&gt;Portal</title>
<path fill="none" stroke="RED" d="M250.519,-269.36C292.265,-244.276 378.3,-194.665 456,-163 467.59,-158.277 472.313,-161.514 483,-155 493.413,-148.653 503.067,-139.369 510.813,-130.653"/>
<polygon fill="RED" stroke="RED" points="513.577,-132.806 517.359,-122.909 508.231,-128.287 513.577,-132.806"/>
</g>
<!-- Listener Helper&#45;&gt;Routing Server -->
<g id="edge16" class="edge"><title>Listener Helper&#45;&gt;Routing Server</title>
<path fill="none" stroke="black" d="M261.512,-271.002C315.281,-251.932 415.71,-217.878 477.101,-197.878"/>
<polygon fill="black" stroke="black" points="478.545,-201.089 486.976,-194.673 476.384,-194.431 478.545,-201.089"/>
</g>
<!-- Auth Helper -->
<g id="node5" class="node"><title>Auth Helper</title>
<ellipse fill="none" stroke="black" cx="236" cy="-181" rx="54.6905" ry="18"/>
<text text-anchor="middle" x="236" y="-177.3" font-family="Times,serif" font-size="14.00">Auth Helper</text>
</g>
<!-- Listener Helper&#45;&gt;Auth Helper -->
<g id="edge3" class="edge"><title>Listener Helper&#45;&gt;Auth Helper</title>
<path fill="none" stroke="blue" d="M226.816,-267.992C228.528,-251.964 231.121,-227.687 233.115,-209.011"/>
<polygon fill="blue" stroke="blue" points="236.599,-209.349 234.181,-199.034 229.639,-208.605 236.599,-209.349"/>
</g>
<!-- Private Keys -->
<g id="node9" class="node"><title>Private Keys</title>
<polygon fill="none" stroke="black" points="177,-52 97,-52 97,-16 183,-16 183,-46 177,-52"/>
<polyline fill="none" stroke="black" points="177,-52 177,-46 "/>
<polyline fill="none" stroke="black" points="183,-46 177,-46 "/>
<text text-anchor="middle" x="140" y="-30.3" font-family="Times,serif" font-size="14.00">Private Keys</text>
</g>
<!-- Listener Helper&#45;&gt;Private Keys -->
<g id="edge8" class="edge"><title>Listener Helper&#45;&gt;Private Keys</title>
<path fill="none" stroke="black" stroke-dasharray="1,5" d="M157.812,-275.101C112.466,-264.545 55.8203,-242.939 27,-199 -8.65189,-144.645 69.0016,-81.6777 112.77,-52.0613"/>
<polygon fill="black" stroke="black" points="157.078,-278.523 167.596,-277.251 158.58,-271.687 157.078,-278.523"/>
</g>
<!-- Auth Helper&#45;&gt;Portal -->
<g id="edge14" class="edge"><title>Auth Helper&#45;&gt;Portal</title>
<path fill="none" stroke="RED" d="M284.843,-172.756C308.675,-169.415 337.79,-165.619 364,-163 390.373,-160.365 458.985,-166.215 483,-155 494.21,-149.765 504.097,-140.499 511.803,-131.495"/>
<polygon fill="RED" stroke="RED" points="514.743,-133.423 518.243,-123.423 509.271,-129.057 514.743,-133.423"/>
</g>
<!-- App -->
<g id="node6" class="node"><title>App</title>
<ellipse fill="none" stroke="black" cx="236" cy="-106" rx="27" ry="18"/>
<text text-anchor="middle" x="236" y="-102.3" font-family="Times,serif" font-size="14.00">App</text>
</g>
<!-- Auth Helper&#45;&gt;App -->
<g id="edge4" class="edge"><title>Auth Helper&#45;&gt;App</title>
<path fill="none" stroke="blue" d="M236,-162.7C236,-154.245 236,-143.869 236,-134.373"/>
<polygon fill="blue" stroke="blue" points="239.5,-134.176 236,-124.176 232.5,-134.176 239.5,-134.176"/>
</g>
<!-- Auth Helper&#45;&gt;Private Keys -->
<g id="edge7" class="edge"><title>Auth Helper&#45;&gt;Private Keys</title>
<path fill="none" stroke="black" stroke-dasharray="1,5" d="M203.061,-158.264C201.99,-157.203 200.965,-156.114 200,-155 172.553,-123.307 154.04,-76.856 145.467,-52.0691"/>
<polygon fill="black" stroke="black" points="200.786,-160.924 210.633,-164.833 205.373,-155.636 200.786,-160.924"/>
</g>
<!-- Saved App Image -->
<g id="node10" class="node"><title>Saved App Image</title>
<polygon fill="none" stroke="black" points="323.5,-52 214.5,-52 214.5,-16 329.5,-16 329.5,-46 323.5,-52"/>
<polyline fill="none" stroke="black" points="323.5,-52 323.5,-46 "/>
<polyline fill="none" stroke="black" points="329.5,-46 323.5,-46 "/>
<text text-anchor="middle" x="272" y="-30.3" font-family="Times,serif" font-size="14.00">Saved App Image</text>
</g>
<!-- App&#45;&gt;Saved App Image -->
<g id="edge6" class="edge"><title>App&#45;&gt;Saved App Image</title>
<path fill="none" stroke="black" stroke-dasharray="1,5" d="M244.35,-88.7646C248.543,-80.6113 253.728,-70.5291 258.471,-61.3066"/>
<polygon fill="black" stroke="black" points="261.732,-62.6176 263.193,-52.1239 255.507,-59.4161 261.732,-62.6176"/>
</g>
<!-- Storage Helper -->
<g id="node7" class="node"><title>Storage Helper</title>
<ellipse fill="none" stroke="black" cx="100" cy="-181" rx="63.8893" ry="18"/>
<text text-anchor="middle" x="100" y="-177.3" font-family="Times,serif" font-size="14.00">Storage Helper</text>
</g>
<!-- Storage Helper&#45;&gt;App -->
<g id="edge5" class="edge"><title>Storage Helper&#45;&gt;App</title>
<path fill="none" stroke="black" stroke-dasharray="1,5" d="M147.37,-168.822C175.061,-162.271 204.675,-155.23 205,-155 213.003,-149.34 219.447,-140.898 224.342,-132.665"/>
<polygon fill="black" stroke="black" points="227.554,-134.082 229.212,-123.618 221.39,-130.764 227.554,-134.082"/>
</g>
<!-- Storage Helper&#45;&gt;Private Keys -->
<g id="edge9" class="edge"><title>Storage Helper&#45;&gt;Private Keys</title>
<path fill="none" stroke="black" stroke-dasharray="1,5" d="M107.412,-153.132C115.551,-123.627 128.378,-77.1308 135.261,-52.1804"/>
<polygon fill="black" stroke="black" points="104.031,-152.226 104.746,-162.797 110.779,-154.088 104.031,-152.226"/>
</g>
<!-- Storage Server -->
<g id="node11" class="node"><title>Storage Server</title>
<ellipse fill="none" stroke="black" cx="663" cy="-34" rx="63.0888" ry="18"/>
<text text-anchor="middle" x="663" y="-30.3" font-family="Times,serif" font-size="14.00">Storage Server</text>
</g>
<!-- Storage Helper&#45;&gt;Storage Server -->
<g id="edge17" class="edge"><title>Storage Helper&#45;&gt;Storage Server</title>
<path fill="none" stroke="black" d="M144.291,-168.052C153.393,-166.018 162.958,-164.184 172,-163 187.485,-160.973 439.948,-163.576 453,-155 483.742,-134.801 459.699,-103.498 488,-80 492.699,-76.0982 556.471,-60.284 605.688,-48.4987"/>
<polygon fill="black" stroke="black" points="606.715,-51.852 615.629,-46.1255 605.09,-45.0433 606.715,-51.852"/>
</g>
<!-- Upload Helper -->
<g id="node8" class="node"><title>Upload Helper</title>
<ellipse fill="none" stroke="black" cx="378" cy="-106" rx="63.0888" ry="18"/>
<text text-anchor="middle" x="378" y="-102.3" font-family="Times,serif" font-size="14.00">Upload Helper</text>
</g>
<!-- Upload Helper&#45;&gt;Portal -->
<g id="edge20" class="edge"><title>Upload Helper&#45;&gt;Portal</title>
<path fill="none" stroke="RED" d="M441.113,-106C456.415,-106 471.716,-106 487.017,-106"/>
<polygon fill="RED" stroke="RED" points="487.072,-109.5 497.072,-106 487.072,-102.5 487.072,-109.5"/>
</g>
<!-- Upload Helper&#45;&gt;Private Keys -->
<g id="edge10" class="edge"><title>Upload Helper&#45;&gt;Private Keys</title>
<path fill="none" stroke="black" stroke-dasharray="1,5" d="M329.46,-88.4079C320.679,-85.524 311.586,-82.6142 303,-80 262.559,-67.6866 216.04,-54.9875 183.076,-46.2326"/>
<polygon fill="black" stroke="black" points="328.604,-91.8114 339.198,-91.6357 330.807,-85.167 328.604,-91.8114"/>
</g>
<!-- Upload Helper&#45;&gt;Saved App Image -->
<g id="edge11" class="edge"><title>Upload Helper&#45;&gt;Saved App Image</title>
<path fill="none" stroke="black" stroke-dasharray="1,5" d="M345.572,-83.5852C330.287,-73.4911 312.299,-61.6125 297.936,-52.1274"/>
<polygon fill="black" stroke="black" points="343.938,-86.7006 354.212,-89.2906 347.796,-80.8593 343.938,-86.7006"/>
</g>
<!-- Storage Server&#45;&gt;Portal -->
<g id="edge19" class="edge"><title>Storage Server&#45;&gt;Portal</title>
<path fill="none" stroke="RED" d="M634.068,-50.1135C612.485,-61.3886 583.012,-76.7846 560.775,-88.4013"/>
<polygon fill="RED" stroke="RED" points="558.974,-85.393 551.731,-93.1255 562.215,-91.5974 558.974,-85.393"/>
</g>
<!-- Image Server -->
<g id="node12" class="node"><title>Image Server</title>
<ellipse fill="none" stroke="black" cx="523" cy="-34" rx="58.4896" ry="18"/>
<text text-anchor="middle" x="523" y="-30.3" font-family="Times,serif" font-size="14.00">Image Server</text>
</g>
<!-- Image Server&#45;&gt;Portal -->
<g id="edge18" class="edge"><title>Image Server&#45;&gt;Portal</title>
<path fill="none" stroke="RED" d="M524.466,-52.1043C525.125,-59.7913 525.919,-69.0537 526.657,-77.6651"/>
<polygon fill="RED" stroke="RED" points="523.176,-78.0321 527.517,-87.6966 530.15,-77.4342 523.176,-78.0321"/>
</g>
<!-- Image Server&#45;&gt;Upload Helper -->
<g id="edge21" class="edge"><title>Image Server&#45;&gt;Upload Helper</title>
<path fill="none" stroke="black" d="M483.752,-53.9473C460.18,-65.327 430.621,-79.5968 408.751,-90.1548"/>
<polygon fill="black" stroke="black" points="485.307,-57.0832 492.791,-49.5838 482.264,-50.7794 485.307,-57.0832"/>
</g>
<!-- legend -->
<g id="node13" class="node"><title>legend</title>
<text text-anchor="start" x="702.5" y="-319.8" font-family="Times,serif" font-size="14.00">Client Traffic</text>
<polygon fill="BLUE" stroke="none" points="799,-312 799,-335 835,-335 835,-312 799,-312"/>
<text text-anchor="start" x="695" y="-294.8" font-family="Times,serif" font-size="14.00">Portal API Calls</text>
<polygon fill="RED" stroke="none" points="799,-287 799,-310 835,-310 835,-287 799,-287"/>
<text text-anchor="start" x="693.5" y="-269.8" font-family="Times,serif" font-size="14.00">Tunneled Traffic</text>
<text text-anchor="start" x="803" y="-269.8" font-family="Times,serif" font-size="14.00">– – –</text>
<text text-anchor="start" x="687" y="-244.8" font-family="Times,serif" font-size="14.00">Filesystem Mounts</text>
<text text-anchor="start" x="803.5" y="-244.8" font-family="Times,serif" font-size="14.00">· · · ·</text>
</g>
</g>
</svg>
