<?xml version="1.0" encoding="UTF-8" standalone="no"?>
<!DOCTYPE svg PUBLIC "-//W3C//DTD SVG 1.1//EN"
 "http://www.w3.org/Graphics/SVG/1.1/DTD/svg11.dtd">
<!-- Generated by graphviz version 2.38.0 (20140413.2041)
 -->
<!-- Title: G Pages: 1 -->
<svg width="250pt" height="408pt"
 viewBox="0.00 0.00 250.00 408.00" xmlns="http://www.w3.org/2000/svg" xmlns:xlink="http://www.w3.org/1999/xlink">
<g id="graph0" class="graph" transform="scale(1 1) rotate(0) translate(4 404)">
<title>G</title>
<polygon fill="white" stroke="none" points="-4,4 -4,-404 246,-404 246,4 -4,4"/>
<g id="clust1" class="cluster"><title>cluster_alice</title>
<polygon fill="none" stroke="black" points="8,-64 8,-392 78,-392 78,-64 8,-64"/>
<text text-anchor="middle" x="43" y="-376.8" font-family="Times,serif" font-size="14.00">Alice</text>
</g>
<g id="clust3" class="cluster"><title>cluster_bob</title>
<polygon fill="none" stroke="black" points="86,-64 86,-211 228,-211 228,-64 86,-64"/>
<text text-anchor="middle" x="157" y="-195.8" font-family="Times,serif" font-size="14.00">Bob</text>
</g>
<!-- public -->
<g id="node1" class="node"><title>public</title>
<polygon fill="none" stroke="black" points="70,-361 16,-361 16,-323 70,-323 70,-361"/>
<text text-anchor="middle" x="43" y="-345.8" font-family="Times,serif" font-size="14.00">Public</text>
<text text-anchor="middle" x="43" y="-330.8" font-family="Times,serif" font-size="14.00">Image</text>
</g>
<!-- a1 -->
<g id="node2" class="node"><title>a1</title>
<ellipse fill="none" stroke="black" cx="43" cy="-237" rx="27" ry="18"/>
<text text-anchor="middle" x="43" y="-233.3" font-family="Times,serif" font-size="14.00">a₁</text>
</g>
<!-- public&#45;&gt;a1 -->
<g id="edge1" class="edge"><title>public&#45;&gt;a1</title>
<path fill="none" stroke="black" d="M43,-322.586C43,-306.698 43,-283.525 43,-265.449"/>
<polygon fill="black" stroke="black" points="46.5001,-265.227 43,-255.227 39.5001,-265.227 46.5001,-265.227"/>
</g>
<!-- a2 -->
<g id="node3" class="node"><title>a2</title>
<ellipse fill="none" stroke="black" cx="43" cy="-162" rx="27" ry="18"/>
<text text-anchor="middle" x="43" y="-158.3" font-family="Times,serif" font-size="14.00">a₂</text>
</g>
<!-- a1&#45;&gt;a2 -->
<g id="edge2" class="edge"><title>a1&#45;&gt;a2</title>
<path fill="none" stroke="black" d="M43,-218.7C43,-210.245 43,-199.869 43,-190.373"/>
<polygon fill="black" stroke="black" points="46.5001,-190.176 43,-180.176 39.5001,-190.176 46.5001,-190.176"/>
</g>
<!-- b1 -->
<g id="node5" class="node"><title>b1</title>
<ellipse fill="none" stroke="black" cx="121" cy="-162" rx="27" ry="18"/>
<text text-anchor="middle" x="121" y="-158.3" font-family="Times,serif" font-size="14.00">b₁</text>
</g>
<!-- a1&#45;&gt;b1 -->
<g id="edge4" class="edge"><title>a1&#45;&gt;b1</title>
<path fill="none" stroke="red" d="M63.3145,-224.688C69.6071,-220.746 76.3628,-216.037 82,-211 89.9626,-203.885 97.6245,-195.053 104.018,-186.913"/>
<polygon fill="red" stroke="red" points="106.93,-188.866 110.18,-178.782 101.351,-184.638 106.93,-188.866"/>
</g>
<!-- a3 -->
<g id="node4" class="node"><title>a3</title>
<ellipse fill="none" stroke="black" cx="43" cy="-90" rx="27" ry="18"/>
<text text-anchor="middle" x="43" y="-86.3" font-family="Times,serif" font-size="14.00">a₃</text>
</g>
<!-- a2&#45;&gt;a3 -->
<g id="edge3" class="edge"><title>a2&#45;&gt;a3</title>
<path fill="none" stroke="black" d="M43,-143.697C43,-135.983 43,-126.712 43,-118.112"/>
<polygon fill="black" stroke="black" points="46.5001,-118.104 43,-108.104 39.5001,-118.104 46.5001,-118.104"/>
</g>
<!-- a3_exported -->
<g id="node8" class="node"><title>a3_exported</title>
<polygon fill="none" stroke="black" points="70.5,-36 9.5,-36 9.5,-0 76.5,-0 76.5,-30 70.5,-36"/>
<polyline fill="none" stroke="black" points="70.5,-36 70.5,-30 "/>
<polyline fill="none" stroke="black" points="76.5,-30 70.5,-30 "/>
<text text-anchor="middle" x="43" y="-14.3" font-family="Times,serif" font-size="14.00">a₃ image</text>
</g>
<!-- a3&#45;&gt;a3_exported -->
<g id="edge7" class="edge"><title>a3&#45;&gt;a3_exported</title>
<path fill="none" stroke="blue" d="M43,-71.6966C43,-63.9827 43,-54.7125 43,-46.1124"/>
<polygon fill="blue" stroke="blue" points="46.5001,-46.1043 43,-36.1043 39.5001,-46.1044 46.5001,-46.1043"/>
</g>
<!-- b2 -->
<g id="node6" class="node"><title>b2</title>
<ellipse fill="none" stroke="black" stroke-dasharray="5,2" cx="121" cy="-90" rx="27" ry="18"/>
<text text-anchor="middle" x="121" y="-86.3" font-family="Times,serif" font-size="14.00">b₂</text>
</g>
<!-- b1&#45;&gt;b2 -->
<g id="edge5" class="edge"><title>b1&#45;&gt;b2</title>
<path fill="none" stroke="black" d="M121,-143.697C121,-135.983 121,-126.712 121,-118.112"/>
<polygon fill="black" stroke="black" points="124.5,-118.104 121,-108.104 117.5,-118.104 124.5,-118.104"/>
</g>
<!-- b3 -->
<g id="node7" class="node"><title>b3</title>
<ellipse fill="none" stroke="black" cx="193" cy="-90" rx="27" ry="18"/>
<text text-anchor="middle" x="193" y="-86.3" font-family="Times,serif" font-size="14.00">b₃</text>
</g>
<!-- b1&#45;&gt;b3 -->
<g id="edge6" class="edge"><title>b1&#45;&gt;b3</title>
<path fill="none" stroke="black" d="M135.57,-146.834C145.75,-136.938 159.524,-123.546 171.031,-112.359"/>
<polygon fill="black" stroke="black" points="173.474,-114.865 178.204,-105.385 168.595,-109.846 173.474,-114.865"/>
</g>
<!-- b3_exported -->
<g id="node9" class="node"><title>b3_exported</title>
<polygon fill="none" stroke="black" points="221,-36 159,-36 159,-0 227,-0 227,-30 221,-36"/>
<polyline fill="none" stroke="black" points="221,-36 221,-30 "/>
<polyline fill="none" stroke="black" points="227,-30 221,-30 "/>
<text text-anchor="middle" x="193" y="-14.3" font-family="Times,serif" font-size="14.00">b₃ image</text>
</g>
<!-- b3&#45;&gt;b3_exported -->
<g id="edge8" class="edge"><title>b3&#45;&gt;b3_exported</title>
<path fill="none" stroke="blue" d="M193,-71.6966C193,-63.9827 193,-54.7125 193,-46.1124"/>
<polygon fill="blue" stroke="blue" points="196.5,-46.1043 193,-36.1043 189.5,-46.1044 196.5,-46.1043"/>
</g>
<!-- legend -->
<g id="node10" class="node"><title>legend</title>
<text text-anchor="start" x="121" y="-375.8" font-family="Times,serif" font-size="14.00">Exported</text>
<polygon fill="BLUE" stroke="none" points="204,-368 204,-391 240,-391 240,-368 204,-368"/>
<text text-anchor="start" x="127" y="-350.8" font-family="Times,serif" font-size="14.00">Shared</text>
<polygon fill="RED" stroke="none" points="204,-343 204,-366 240,-366 240,-343 204,-343"/>
<text text-anchor="start" x="97" y="-325.8" font-family="Times,serif" font-size="14.00">Persisted Instance</text>
<text text-anchor="start" x="208" y="-325.8" font-family="Times,serif" font-size="14.00">––––</text>
<text text-anchor="start" x="94" y="-300.8" font-family="Times,serif" font-size="14.00">Discarded Instance</text>
<text text-anchor="start" x="208" y="-300.8" font-family="Times,serif" font-size="14.00">– – –</text>
</g>
</g>
</svg>
